<svg xmlns="http://www.w3.org/2000/svg" xmlns:xlink="http://www.w3.org/1999/xlink" xml:space="preserve" id="e07c9319-842b-449a-9f57-029d5804b779" x="0" y="0" version="1.1" viewBox="0 0 1168.8 684.5"><defs><path id="reuse-0" d="m557 344-4 39 40 6 3-22 3-23z" class="st8"/></defs><style>.st0{fill:#fff}.st1{fill:#3943b7;stroke:#fff;stroke-width:2;stroke-miterlimit:10}.st2{fill:#d0cde1}.st3{fill:#3f3d56}.st4,.st6{fill:#3943b7}.st6{stroke:#fff;stroke-miterlimit:10}.st7{fill:#2e7d32}.st8{fill:#ffb9b9}</style><path d="M1042 238a109 109 0 1 1 0-218 109 109 0 0 1 0 218zm0-217a107 107 0 1 0 0 215 107 107 0 0 0 0-215z" class="st0"/><circle cx="1042.7" cy="128.8" r="54.8" class="st1" transform="rotate(-77 1043 129)"/><path d="M64 129h981v492H64z" class="st2"/><path d="M340 271h368v252H340z" class="st3"/><circle cx="1118.1" cy="53" r="25.9" class="st1"/><circle cx="93.4" cy="147.2" r="11.7" class="st4"/><circle cx="129.7" cy="147.2" r="11.7" fill="#474eb1"/><circle cx="165.9" cy="147.2" r="11.7" class="st4"/><path d="M178 312h23v23h-23z" class="st6"/><path d="M889 515h23v24h-23z" class="st0"/><path d="M817 358h23v23h-23z" class="st6" transform="rotate(-39 828 369)"/><path d="M748 671H14V276h2v392h732z" class="st0"/><path d="M762 685a15 15 0 1 1 15-16c0 9-7 16-15 16zm0-28a13 13 0 0 0 0 25 13 13 0 0 0 0-25zM15 277a15 15 0 1 1 15-15c0 8-6 15-15 15zm0-28a13 13 0 1 0 13 13c0-7-6-13-13-13z" class="st0"/><path d="m235 592-11 29h-23v-29c2-38 23-55 23-56-15 15-14 68-14 68 11-46 20-47 20-47-5 9-8 47-8 50 0-8 13-15 13-15zM960 596v25h-18l-9-24s11 5 11 11c0-2-2-32-7-39 0 0 8 1 16 37 0 0 1-42-11-54 0 1 17 15 18 44z" class="st7"/><path d="M645 523h-29v-2l-2-26-2-27 13-56 11 11v54s7 9 5 12-2 3-1 5 3 3 1 4v6c2 1 4 3 2 5s-4 1-2 8l2 4 2 2z" class="st2"/><use xlink:href="#reuse-0" class="st8"/><use xlink:href="#reuse-0" opacity=".1"/><circle cx="579.1" cy="325.2" r="31.4" class="st8"/><path d="M500 523h-1v-2c-2-4-4-9-3-11 2-3 3-5 1-7s-5 2-1-2c4-3 5-1 4-5s-4-2-1-4c2-2 4-1 3-3s-4-2-1-3 4 0 3-4-1-2 0-3l4-8 12-39-11-43-5-2s-20 14-26 44-12 39-12 39-6 1-2 6c5 5 5 4 1 7s-6-3-4 2 6 4 4 7c-3 4-8 4-5 6s-3 9 1 11c3 3 4 4 4 8a23 23 0 0 0 1 6v2l34-2z" class="st2"/><path d="M500 523h2l1-1-4 1h-11l-22 2z" class="st3"/><path d="m514 496-6-21v-4l-4-84 39-14 7-5s1-15 3-17c1 0 2 0 3 2l11 11c8 8 23 7 27 4l2-1h5c3 3-5 11-5 11s3 6 20 12 20 33 20 33-20 55-20 59c1 4-1 11-2 13v1l1 25v2h-99l-1-2v-1c-6-9-1-24-1-24z" class="st4"/><path fill="#2f2e41" d="M548 329s-4-5-2-10v-9s3-9 6-13 1-7 9-9 5-12 27 0c2 2 4 3 7 2 4-1 6 5 6 5s3-1 4 1 9-1 9 16-9 32-9 32 1-29-14-32-31-11-35 0l-8 17z"/><ellipse cx="605.3" cy="332.1" class="st8" rx="2.9" ry="3.9"/><path d="M340 252v271h430V252H340zm427 269H342V255h425v266z" class="st0"/></svg>