<?xml version="1.0" encoding="utf-8"?>
<!-- Generator: Adobe Illustrator 25.1.0, SVG Export Plug-In . SVG Version: 6.00 Build 0)  -->
<svg version="1.1" id="Layer_1" xmlns="http://www.w3.org/2000/svg" xmlns:xlink="http://www.w3.org/1999/xlink" x="0px" y="0px"
	 viewBox="0 0 882.3 455.6" style="enable-background:new 0 0 882.3 455.6;" xml:space="preserve">
<style type="text/css">
	.st0{fill:#3F3D56;}
	.st1{opacity:0.1;enable-background:new    ;}
	.st2{opacity:0.6;fill:#2E7D32;enable-background:new    ;}
	.st3{fill:#FFB9B9;}
	.st4{fill:#D0CDE1;}
	.st5{fill:#FAFAFA;stroke:#3F3D56;stroke-width:2;stroke-miterlimit:10;}
	.st6{fill:#3943B7;}
	.st7{fill:#2F2E41;}
	.st8{fill:#6C63FF;}
	.st9{opacity:0.6;enable-background:new    ;}
	.st10{fill:#2E7D32;}
	.st11{fill:#FF6584;}
	.st12{fill:#A8A8A8;}
	.st13{opacity:0.2;enable-background:new    ;}
	.st14{fill:#FFBFC5;}
	.st15{fill:#F1F1F1;}
	.st16{fill:#575A89;}
	.st17{fill-rule:evenodd;clip-rule:evenodd;fill:#D0CDE1;stroke:#585767;stroke-width:2;stroke-miterlimit:10;}
	.st18{fill-rule:evenodd;clip-rule:evenodd;fill:#FAFAFA;stroke:#585767;stroke-width:2;stroke-miterlimit:10;}
	.st19{fill:#E1E4E5;}
</style>
<g>
	<path class="st0" d="M835,452c0,5-102,4-233,4s-531,0-555-4c-73-14,424-13,555-13S835,447,835,452z M299,418h-1v-90l-1-2l1-1l1,3
		V418z M222,212v3V212z"/>
	<path class="st0" d="M297,298c-16,8-37,15-43,17c5-1,19-3,40,11c28,17,57,6,57,6s-6,12-20,13s-50-22-62-15s-18-2-23,14
		c-5,17-14,61-4,86l11,25h-59c0,0,21-57,10-91c-7-20-16-34-20-41c-1-3-2-5,1-5l6,2c0,0-14-14-19-14s-26-2-33-9c0,0-10-7-28,10
		s-13,17-29,16s-29-9-29-9c1,0,19,7,30,4c12-4,21-19,31-23c11-5,17-12,30-5l-9-21l-2-6c0,0-3-39-9-42s-2-10-13-11c0,0,13-2,16,7
		l19,58c0,0,10,20,22,15s-5-32-5-32l-19-9c0,0,14,0,23,8s10,36,10,36s22,3,28,15c0,0,3-11-4-17l-5-8c-6-13-9-27-6-42v-15
		c-2-3-13-25-13-31v-17c0,0,1,14,4,19c3,4,12,27,12,27s0,29,8,43s22,30,21,40v6c0,0,17-15,16-20c-2-6-3-18-13-25s-17-19-10-36l7-17
		l-5,18c0,0-2,19,5,25l18,19v-1l-2-38v1l4,7l3,7c0,0,15-19,33-26c18-6,29-29,29-29l15-12l-12,15c0,0-4,17-26,30s-35,31-36,42l-1,22
		c0,0,40-2,49-19s16-19,16-19l-5,15l-6,13c0,0,24,1,36,15s42,18,42,18l-17,4c0,0-16-5-32-15C315,297,317,288,297,298z"/>
</g>
<path class="st1" d="M306,261c-2,7-4,15-7,20c-9,18-49,19-49,19l1-6c10-1,38-4,45-19l2-4L306,261z M243,282l-17-18l-4-6h1l17,18
	l-2-38l3,8l3,36H243z M249,248l-1,11c0,0,16-20,33-26l4-2c21-13,25-30,25-30l12-15l-15,12c0,0-11,22-29,29C266,231,255,242,249,248z
	 M226,313v6c0,0,16-16,15-21c-1-4-2-12-7-19c3,5,3,10,4,13c1,4-8,13-12,18V313z M204,272v1l16,23C216,288,209,280,204,272z M295,326
	c-9-6-17-9-23-10l-15,5c5-1,19-3,41,11c17,10,35,10,46,8l7-8C351,332,322,343,295,326z M217,260c-2-5-2-12,0-19l1-8l4-18l-7,17
	C210,244,212,253,217,260z M337,300c-8-10-22-13-30-14l-2,5c0,0,23,0,35,14c7,8,19,13,29,15l11-3c0,0-31-4-43-18V300z M171,296
	c12-5-4-32-4-32l-1-1c4,9,10,24,2,27s-15-5-19-10h1C150,280,160,301,171,296z M208,313c0,0,4-10-3-17c2,6,0,12,0,12
	c-4-10-19-14-25-15v5C180,298,203,301,208,313z M222,215l1-3L222,215z M87,323c11-4,21-18,31-23s16-11,30-4c0,0-3-10-7-16l3,10
	c-13-7-19-1-29,4s-20,19-31,23s-30-4-30-4s12,8,28,10H87z M136,269h-1l-2-6c0,0-2-25-5-37v1C133,229,136,269,136,269z M200,455
	c5-16,17-58,7-86c-4-12-8-19-11-24c3,4,5,10,8,19c11,34-10,91-10,91H200z M195,326c-4-2-7-3-11-3c-1-3-2-5,1-5h2L195,326z M121,218
	l1,2L121,218z M171,262l1,2l-4-7c-9-9-24-8-24-8l18,8C166,258,168,260,171,262z M190,226v15c-2,14,0,29,7,42l2,5c-6-13-8-27-6-41
	c1-7,2-14,1-15c-3-4-13-26-14-31v-7c-2-6-2-17-2-17s-2,12-1,18S188,222,190,226z M216,188l-1-1L216,188z M120,216l7,2v-1
	c-3-9-16-7-16-7C117,211,119,213,120,216z"/>
<path class="st0" d="M376,438c-4,6-3,14-3,14s7-2,11-8s3-15,3-15S380,432,376,438z"/>
<path class="st2" d="M379,439c-1,7-6,13-6,13s-5-6-5-14c0-7,6-13,6-13S379,431,379,439z"/>
<g>
	<path id="reuse-0" class="st3" d="M308,395c0,0,4-5,6-4s-5,6-5,6L308,395z"/>
</g>
<g>
	<path id="reuse-0_1_" class="st3" d="M308,395c0,0,4-5,6-4s-5,6-5,6L308,395z"/>
</g>
<g>
	<path id="B" class="st4" d="M293,385c0,0-1,3-1,6s5,14,6,14l12-8l-2-3l-8,5c0,0-1-17-7-15V385z"/>
</g>
<path class="st5" d="M320,391l-11,6l-3-5l10-5L320,391z"/>
<g>
	<path id="B_1_" class="st4" d="M293,385c0,0-1,3-1,6s5,14,6,14l12-8l-2-3l-8,5c0,0-1-17-7-15V385z"/>
</g>
<g>
	<path class="st3" d="M304,396c0,0,6-4,7-3c2,1-6,5-6,5L304,396z"/>
	<circle class="st3" cx="297.3" cy="374.1" r="5.1"/>
	<g>
		<path id="C" class="st3" d="M315,410c0,0,5,0,5,4l-4,17v5c0,0,0,9-1,9l-4-6c0,0-3-2-1-4s2-2,2-4l1-12l1-4h-3L315,410z"/>
	</g>
</g>
<g>
	<path id="C_1_" class="st3" d="M315,410c0,0,5,0,5,4l-4,17v5c0,0,0,9-1,9l-4-6c0,0-3-2-1-4s2-2,2-4l1-12l1-4h-3L315,410z"/>
</g>
<path class="st3" d="M315,410c0,0,5,2,6,5l3,14l3,6c0,0,4,8,3,8l-6-4l-3-2l1-2l-4-8l-2-4l-1-5l-3-2L315,410z"/>
<path class="st0" d="M298,399l3,7l6,2c3,1,8,0,9,2c0,2-1,6-3,7s-2,1-7,0l-18-2l-3,1h-4l1-2l2-2c2-1,3-7,4-8l1-5H298z"/>
<path class="st3" d="M298,378c-2,1-2,3-2,4c0,3-6-2-6-2l3-5L298,378z"/>
<path class="st4" d="M291,377l4,3l3,6c0,0,4,4,3,8l-3,6c0,1-1,2-3,2l-7-2c0-1-2-11-1-14L291,377z"/>
<path class="st0" d="M299,374c1,1,2,0,3-1l1-1l-1-2v-1l-1-2h-1l-3-2l-4,1h-2c-2,0-3,1-3,3v2h-1l-1,4l1,2h1l1,1v1h1l1-1l2-1h1v-2l1-1
	l2-1L299,374z"/>
<path class="st4" d="M292,384c0,0-2,2-2,6s2,14,4,14l12-6l-1-3l-9,4C297,399,298,382,292,384z"/>
<path class="st6" d="M275,415h41v8h-41V415z"/>
<path class="st7" d="M295,424c-1,0-3-2-3-4v-92c0-2,2-4,3-4l2,1v1h-3l-1,2v92c0,2,1,3,2,3V424z"/>
<ellipse transform="matrix(0.7771 -0.6293 0.6293 0.7771 -169.072 263.971)" class="st8" cx="288.2" cy="370.7" rx="0.4" ry="1.2"/>
<path class="st0" d="M254,438c-4,6-3,14-3,14s8-2,12-8s3-15,3-15S258,432,254,438z"/>
<path class="st2" d="M257,439c0,7-6,13-6,13s-5-6-4-14c0-7,5-13,5-13S257,431,257,439z"/>
<path class="st0" d="M188,440c1,7,8,12,8,12s4-7,2-15s-9-11-9-11s-4,7-2,14H188z"/>
<g>
	<path class="st2" d="M190,439c6,5,6,13,6,13s-8-1-13-6s-6-13-6-13S185,433,190,439z M173,248c-1,7-6,13-6,13s-5-6-5-14
		c1-7,6-13,6-13S173,241,173,248z"/>
	<g class="st9">
		<path id="D" class="st10" d="M114,201c7,4,9,12,9,12s-8,1-14-3s-9-11-9-11S108,197,114,201z"/>
	</g>
	<g class="st9">
		<path id="D_1_" class="st10" d="M100,291c7,4,9,12,9,12s-8,1-14-3s-9-11-9-11S94,287,100,291z"/>
	</g>
	<path class="st2" d="M228,215c-2,7-9,11-9,11s-3-7-2-14s9-12,9-12s4,7,2,14V215z M287,220c-2,7-9,11-9,11s-3-7-1-14s9-11,9-11
		S289,213,287,220z M351,299c-3,6-11,8-11,8s-1-8,3-14s11-9,11-9S355,292,351,299z"/>
</g>
<path class="st11" d="M598,407c0,0,9,16,9,25s-4,7-9,7s-9,2-9-7S598,407,598,407z"/>
<path class="st1" d="M598,424c0,0,4,8,4,12s-2,3-4,3s-4,1-4-3S598,424,598,424z"/>
<g>
	<g>
		<path id="E" class="st7" d="M611,444c0,1-1,2-3,2h-19c-2,0-3-1-3-3c0-1,1-2,3-2h19C610,441,611,442,611,444z"/>
	</g>
	<g>
		<path id="E_1_" class="st7" d="M611,439c0,1-1,2-3,2h-19c-2,0-3-1-3-3c0-1,1-2,3-2h19C610,436,611,437,611,439z"/>
	</g>
</g>
<path class="st0" d="M685,438c11,0,20-12,20-26"/>
<path class="st2" d="M662,411c12,0,23,12,23,27 M685,438c7,0,13-11,13-25"/>
<path class="st0" d="M658,404c15,0,27,15,27,34"/>
<path class="st12" d="M688,442l-8,1c-3,0,0-4,1-5s4-1,4,0l4,1l-1,2V442z"/>
<path class="st13" d="M678,442l1,1l9-2l1-3l-1,3l-9,1H678z"/>
<path class="st0" d="M535,442c8,0,15-9,15-19"/>
<g>
	<path class="st2" d="M520,423c8,0,15,8,15,19 M535,442c5,0,9-8,9-18"/>
</g>
<path class="st0" d="M517,418c10,0,18,11,18,24"/>
<path class="st12" d="M538,444l-6,1c-2,0,0-3,1-4s2,0,3,0l2,1V444z"/>
<path class="st13" d="M531,444l1,1l6-1v-2l-1,2H531z"/>
<path class="st12" d="M463,451h-9c-3-1,1-4,2-5s4,0,5,1l4,1L463,451z"/>
<path class="st13" d="M453,450l1,1h9l2-3l-2,2H453z"/>
<path class="st12" d="M577,450h-8c-3,0,1-3,2-4s3,0,4,1l3,1L577,450z"/>
<path class="st13" d="M568,449l1,1h8l1-2l-1,2h-8L568,449z"/>
<path class="st12" d="M708,448h-6c-2,0,1-3,2-3h3l2,1L708,448z"/>
<path class="st13" d="M702,448h7v-2l-1,2H702z"/>
<path class="st1" d="M665,431c13,0,25,2,25,10s-12,6-25,6s-25,2-25-6S651,431,665,431z"/>
<path class="st0" d="M665,429c13,0,25,2,25,10s-12,6-25,6s-25,2-25-6S651,429,665,429z"/>
<path class="st14" d="M637,402v-1l4-5l2,2l-1,5l-1,2l-1-2l-2-1H637z"/>
<path class="st15" d="M625,433l3,1l-2,3l-1,1l-2-1l-1-1h-1l1-1L625,433"/>
<g>
	<path id="F" class="st16" d="M623,434v1l2,1h1v3l-2,1h-7l-3-1v-1h1l1-1h2l2-1l1-1v-1H623z"/>
</g>
<g>
	<path id="F_1_" class="st16" d="M623,434v1l2,1h1v3l-2,1h-7l-3-1v-1h1l1-1h2l2-1l1-1v-1H623z"/>
</g>
<path class="st15" d="M620,442h1l1,1l1,1l-1,2l-1,1v1h-2l-3-2v-2l1-1L620,442z"/>
<g>
	<path class="st16" d="M619,447h2v-1l1,1v3l-3,1h-2l-2,1c-2.3,0.4-4.7,0.4-7,0l-1-1l-1-2v-1h1l4-1l3-2l1-1h2v1l1,1L619,447h1"/>
	<g>
		<path id="G" class="st16" d="M640,414l5,1l4,2l1,2v2l-2,3l-4-1l-5-1h-2l-1,3l-5,9l-2,2h-2l-3-2c3-2,5-5,5-9l1-3l1-2l2-4l1-2l4-1
			L640,414z"/>
	</g>
</g>
<g>
	<path id="G_1_" class="st16" d="M640,414l5,1l4,2l1,2v2l-2,3l-4-1l-5-1h-2l-1,3l-5,9l-2,2h-2l-3-2c3-2,5-5,5-9l1-3l1-2l2-4l1-2l4-1
		L640,414z"/>
</g>
<path class="st14" d="M632,423v2l-2,2v1h-3v-2l1-2l2-1l2-1V423z"/>
<path class="st16" d="M658,425h3l3,3l-2,3l-4,1l-19,1h-4l-2,3l-1,2l-4,4l-4,4l-1-1l-3-3v-1l1-1l5-7l1-3l2-2l1-2l2-1l10-2h7L658,425z
	"/>
<path class="st4" d="M667,426l-1,1l-3,1l-1,1h-1l-1,1l-6,4h-1l-1-1l-1-2l-2-5l-4-7l-2-2l-2-4l-1-4v-3c1-3,1-6,3-8l9,3l7,7l1,3l1,3
	l3,4l1,2v1l1,1L667,426z"/>
<circle class="st14" cx="636.3" cy="396.7" r="5.4"/>
<path class="st0" d="M634,393l1,1l2,1h1v1h2v-1l2,3h2v-7l-1-1l-1-1l-1-1h-7l-2,1l-1,1v1h-1v3l1,1l2-1v-1H634z"/>
<path class="st1" d="M649,406l1,2l1,2v1l-2,6l-3,5l-1,2l-3,1l-10,1l-1-1v-1l1-2l1-1h2l1-1h1l1-1h1v-3h1v-11l1-1h4l3,2H649z"/>
<path class="st6" d="M648,405l2,2l1,2l-1,2l-1,6l-3,4l-2,2l-2,1l-10,2l-1-1v-1l1-2l1-1h1l1-1h2l1-1h1v-4l1-2v-9h1l4-1L648,405z"/>
<g>
	<path class="st17" d="M351,83h31c3,0,3-2,2-3l-3-1l-2-2h-4l-1-2l-2-1c0,0-1-6-8-6s-7,5-7,5l-3,1l-1,3c0,0-4-1-5,2
		C348,81,349,83,351,83z M350,108h31c3,0,3-3,2-4h-3l-3-3h-3l-1-2l-3-1c0,0-1-6-7-6s-7,6-7,6l-3,1l-1,2c0,0-4,0-5,3
		C347,105,348,108,350,108z"/>
	<path class="st18" d="M407,97c-4-6-3-13,1-18v-2h-1c-4,0-7,1-11,3c-9,6-12,18-6,27c6,10,18,12,27,6c3-2,6-4,8-8l-1-1h-1
		C417,105,410,102,407,97z"/>
	<path class="st17" d="M446,124h-32c-3,0-3-2-2-3l3-1c0,0,1-2,3-2l3-1l1-2l3-1c0,0,1-6,8-6s7,6,7,6l3,1l1,2c0,0,4-1,5,3
		C450,122,448,124,446,124z"/>
</g>
<path class="st19" d="M372,114l1,2l-1,3c0-3-2-3-2-3s1,0,1-2H372z M425,125c0,3,2,3,2,3s-2,0-2,2c0-2-2-2-2-2S425,128,425,125z
	 M357,114l1,3l-1,2c0-2-2-2-2-2S356,117,357,114z M366,121l1,2l-1,3c0-3-2-3-2-3S365,123,366,121z M211,59l1,2l-1,2c0-2-2-2-2-2
	s2,0,2-3V59z M156,105c0,2,2,2,2,2s-2,0-2,3c0-3-2-3-2-3S156,107,156,105z M257,108c0,2,2,2,2,2s-2,0-2,3c0-3-2-3-2-3
	S257,110,257,108z M297,68l2,2c0,0-2,0-2,3l-1-3L297,68z M370,29l1,3l-1,2c0-2-2-2-2-2S369,32,370,29z M465,55c0,3,2,3,2,3s-2,0-2,2
	c0-2-2-2-2-2S465,58,465,55z M558,88c0,3,2,3,2,3s-2,0-2,2c0-2-2-2-2-2S558,91,558,88z M604,24c0,3,2,3,2,3s-2,0-2,2c0-2-2-2-2-2
	S604,27,604,24z M676,65c0,2,2,2,2,2s-2,0-2,3c0-3-2-3-2-3S676,67,676,65z M411,70c0,2,2,2,2,2s-2,0-2,3c0-3-2-3-2-3S411,72,411,70z
	"/>
<path class="st17" d="M426,81h-8l-1-2h2c0,0,0-4,4-4c3,0,4,3,4,5L426,81z M444,87h9v-1l-2-1c0,0,0-3-3-3s-4,3-5,4L444,87z M447,108
	h9l1-2h-3c0,0,0-4-3-4s-4,3-4,5V108z M423,99h21c1,0,2-2,1-3c-2-2-5-2-5-2s0-7-7-7c-4,0-6,6-6,6s-5,0-6,4L423,99z"/>
</svg>
