<?xml version="1.0" encoding="utf-8"?>
<!-- Generator: Adobe Illustrator 25.1.0, SVG Export Plug-In . SVG Version: 6.00 Build 0)  -->
<svg version="1.1" id="Layer_1" xmlns="http://www.w3.org/2000/svg" xmlns:xlink="http://www.w3.org/1999/xlink" x="0px" y="0px"
	 viewBox="0 0 882.3 455.6" style="enable-background:new 0 0 882.3 455.6;" xml:space="preserve">
<style type="text/css">
	.st0{fill:#3F3D56;}
	.st1{opacity:0.6;fill:#2E7D32;enable-background:new    ;}
	.st2{fill:#FF6584;}
	.st3{opacity:0.1;enable-background:new    ;}
	.st4{fill:#2F2E41;}
	.st5{fill:#A8A8A8;}
	.st6{opacity:0.2;enable-background:new    ;}
	.st7{fill:#FFBFC5;}
	.st8{fill:#F1F1F1;}
	.st9{fill:#575A89;}
	.st10{fill:#D0CDE1;}
	.st11{fill:#3943B7;}
	.st12{fill-rule:evenodd;clip-rule:evenodd;fill:#D0CDE1;stroke:#585767;stroke-width:2;stroke-miterlimit:10;}
	.st13{fill-rule:evenodd;clip-rule:evenodd;fill:#FAFAFA;stroke:#585767;stroke-width:2;stroke-miterlimit:10;}
	.st14{fill:#E1E4E5;}
</style>
<g>
	<path class="st0" d="M672,452c0,5-59,4-135,4s-308,0-322-4c-42-14,246-13,322-13S672,447,672,452z"/>
	<path class="st0" d="M565,438c-4,6-3,14-3,14s7-2,11-8s3-15,3-15S569,432,565,438z"/>
</g>
<path class="st1" d="M568,439c-1,7-6,13-6,13s-5-6-5-14c1-7,6-13,6-13S568,431,568,439z"/>
<path class="st0" d="M364,438c-4,6-3,14-3,14s8-2,12-8s3-15,3-15S368,432,364,438z"/>
<path class="st1" d="M367,439c0,7-6,13-6,13s-5-6-4-14c0-7,5-13,5-13S367,431,367,439z"/>
<path class="st0" d="M298,440c1,7,8,12,8,12s4-7,2-15s-9-11-9-11S296,433,298,440z"/>
<path class="st1" d="M300,439c6,5,6,13,6,13s-8-1-13-6s-6-13-6-13S295,433,300,439z"/>
<path class="st2" d="M439,408c0,0,9,16,9,25s-4,7-9,7s-8,2-8-7S439,408,439,408z"/>
<path class="st3" d="M439,425c0,0,4,8,4,12s-1,3-4,3s-4,1-4-3S439,425,439,425z"/>
<g>
	<g>
		<path id="B" class="st4" d="M452,445c0,1-1,2-3,2h-19c-2,0-3-1-3-3c0-1,1-2,3-2h19C451,442,452,443,452,445z"/>
	</g>
	<g>
		<path id="B_1_" class="st4" d="M452,440.2c0,1-1,2-3,2h-19c-2,0-3-1-3-3c0-1,1-2,3-2h19C451,437.2,452,438.2,452,440.2z"/>
	</g>
</g>
<path class="st0" d="M525,438c11,0,20-12,20-26"/>
<path class="st1" d="M502,411c12,0,23,12,23,27 M525,438c7,0,13-11,13-25"/>
<path class="st0" d="M498,404c15,0,27,15,27,34"/>
<path class="st5" d="M528,442l-8,1c-3,0,0-4,1-5s4-1,4,0l4,1l-1,2V442z"/>
<path class="st6" d="M518,442l1,1l9-2l1-3l-1,3l-9,1H518z"/>
<path class="st0" d="M395,442c8,0,15-9,15-19"/>
<g>
	<path class="st1" d="M380,423c8,0,15,8,15,19 M395,442c5,0,9-8,9-18"/>
</g>
<path class="st0" d="M377,418c10,0,18,11,18,24"/>
<path class="st5" d="M398,444l-6,1c-2,0,0-3,1-4s2,0,3,0l2,1V444z"/>
<path class="st6" d="M391,444l1,1l6-1v-2l-1,2H391z"/>
<path class="st5" d="M413,451h-9c-3-1,1-4,2-5s4,0,5,1l4,1L413,451z"/>
<path class="st6" d="M403,450l1,1h9l2-3l-2,2H403z"/>
<path class="st5" d="M563,453h-8c-3,0,1-3,2-4s3,0,4,1l3,1L563,453z"/>
<path class="st6" d="M554,452l1,1h8l1-2l-1,2h-8L554,452z"/>
<path class="st5" d="M548,446h-6c-2,0,1-3,2-3h3l2,1L548,446z"/>
<path class="st6" d="M542,446h7v-2l-1,2H542z"/>
<path class="st3" d="M505,431c13,0,25,2,25,10s-12,6-25,6s-25,2-25-6S491,431,505,431z"/>
<path class="st0" d="M505,429c13,0,25,2,25,10s-12,6-25,6s-25,2-25-6S491,429,505,429z"/>
<path class="st7" d="M477,402v-1l4-5l2,2l-1,5l-1,2l-1-2l-2-1H477z"/>
<path class="st8" d="M465,433l3,1l-2,3l-1,1l-2-1l-1-1h-1l1-1L465,433"/>
<g>
	<path id="C" class="st9" d="M463,434v1l2,1h1v3l-2,1h-7l-3-1v-1h1l1-1h2l2-1l1-1v-1H463z"/>
</g>
<g>
	<path id="C_1_" class="st9" d="M463,434v1l2,1h1v3l-2,1h-7l-3-1v-1h1l1-1h2l2-1l1-1v-1H463z"/>
</g>
<path class="st8" d="M460,442h1l1,1l1,1l-1,2l-1,1v1h-2l-3-2v-2l1-1L460,442z"/>
<g>
	<path class="st9" d="M459,447h2v-1l1,1v3l-3,1h-2l-2,1c-2.3,0.4-4.7,0.4-7,0l-1-1l-1-2v-1h1l4-1l3-2l1-1h2l1,1v1L459,447h1"/>
	<g>
		<path id="D" class="st9" d="M480,414l5,1l4,2l1,2v2l-2,3l-4-1l-5-1h-2l-1,3l-5,9l-2,2h-2l-3-2c3-2,4-5,5-9l1-3l1-2l2-4l1-2l3-1
			L480,414z"/>
	</g>
</g>
<g>
	<path id="D_1_" class="st9" d="M480,414l5,1l4,2l1,2v2l-2,3l-4-1l-5-1h-2l-1,3l-5,9l-2,2h-2l-3-2c3-2,4-5,5-9l1-3l1-2l2-4l1-2l3-1
		L480,414z"/>
</g>
<path class="st7" d="M472,423v2l-2,2v1h-3v-2l1-2l2-1l2-1V423z"/>
<path class="st9" d="M498,425h3l3,3l-2,3l-4,1l-19,1h-4l-2,3l-1,2l-4,4l-4,4l-1-1l-3-3v-1l1-1l6-7l1-3l1-2l1-2l2-1l11-2h6L498,425z"
	/>
<path class="st10" d="M507,426l-1,1l-3,1l-1,1h-1l-1,1l-6,4h-1l-1-1l-1-2l-2-5l-4-7l-1-2l-3-4l-1-4v-3c1-3,1-6,3-8l9,3l7,7l1,3l1,3
	l3,4l1,2v1l1,1L507,426z"/>
<circle class="st7" cx="476.3" cy="396.7" r="5.4"/>
<path class="st0" d="M474,393l1,1l2,1h1v1h2v-1l2,3h2v-7l-1-1l-1-1l-1-1h-7l-2,1l-1,1v1h-1v3l1,1l2-1v-1H474z"/>
<path class="st3" d="M489,406l1,2l1,2v1l-2,6l-3,5l-1,2l-3,1l-10,1l-1-1v-1l1-2l1-1h2l1-1h1l1-1h1v-3h1v-11l1-1h4l3,2H489z"/>
<path class="st11" d="M488,405l2,2l1,2l-1,2l-1,6l-3,4l-2,2l-2,1l-10,2l-1-1v-1l1-2l1-1h1l1-1h2l1-1h1v-4l1-2v-4l-1-4l1-1h1l4-1
	L488,405z"/>
<g>
	<path class="st12" d="M351,83h31c3,0,3-2,2-3l-3-1l-2-2h-4l-1-2l-2-1c0,0-1-6-8-6s-7,5-7,5l-3,1l-1,3c0,0-4-1-5,2
		C348,81,349,83,351,83z M350,108h31c3,0,3-3,2-4h-3l-3-3h-3l-1-2l-3-1c0,0-1-6-7-6s-7,6-7,6l-3,1l-1,2c0,0-4,0-5,3
		C347,105,348,108,350,108z"/>
	<path class="st13" d="M407,97c-4-6-3-13,1-18v-2h-1c-4,0-7,1-11,3c-9,6-12,18-6,27c6,10,18,12,27,6c3-2,6-4,8-8l-1-1h-1
		C417,105,410,102,407,97z"/>
	<path class="st12" d="M446,124h-32c-3,0-3-2-2-3l3-1c0,0,1-2,3-2l3-1l1-2l3-1c0,0,1-6,8-6s7,6,7,6l3,1l1,2c0,0,4-1,5,3
		C450,122,448,124,446,124z"/>
</g>
<path class="st14" d="M372,114l1,2l-1,3c0-3-2-3-2-3s1,0,1-2H372z M425,125c0,3,2,3,2,3s-2,0-2,2c0-2-2-2-2-2S425,128,425,125z
	 M357,114l1,3l-1,2c0-2-2-2-2-2S356,117,357,114z M366,121l1,2l-1,3c0-3-2-3-2-3S365,123,366,121z M211,59l1,2l-1,2c0-2-2-2-2-2
	s2,0,2-3V59z M156,105c0,2,2,2,2,2s-2,0-2,3c0-3-2-3-2-3S156,107,156,105z M257,108c0,2,2,2,2,2s-2,0-2,3c0-3-2-3-2-3
	S257,110,257,108z M297,68l2,2c0,0-2,0-2,3l-1-3L297,68z M370,29l1,3l-1,2c0-2-2-2-2-2S369,32,370,29z M465,55c0,3,2,3,2,3s-2,0-2,2
	c0-2-2-2-2-2S465,58,465,55z M558,88c0,3,2,3,2,3s-2,0-2,2c0-2-2-2-2-2S558,91,558,88z M604,24c0,3,2,3,2,3s-2,0-2,2c0-2-2-2-2-2
	S604,27,604,24z M676,65c0,2,2,2,2,2s-2,0-2,3c0-3-2-3-2-3S676,67,676,65z M411,70c0,2,2,2,2,2s-2,0-2,3c0-3-2-3-2-3S411,72,411,70z
	"/>
<path class="st12" d="M426,81h-8l-1-2h2c0,0,0-4,4-4c3,0,4,3,4,5L426,81z M444,87h9v-1l-2-1c0,0,0-3-3-3s-4,3-5,4L444,87z M447,108
	h9l1-2h-3c0,0,0-4-3-4s-4,3-4,5V108z M423,99h21c1,0,2-2,1-3c-2-2-5-2-5-2s0-7-7-7c-4,0-6,6-6,6s-5,0-6,4L423,99z"/>
</svg>
