<?xml version="1.0" encoding="utf-8"?>
<!-- Generator: Adobe Illustrator 25.1.0, SVG Export Plug-In . SVG Version: 6.00 Build 0)  -->
<svg version="1.1" id="bf987f75-b15a-4b7f-a137-75b4492c4a21"
	 xmlns="http://www.w3.org/2000/svg" xmlns:xlink="http://www.w3.org/1999/xlink" x="0px" y="0px" viewBox="0 0 1167.5 756"
	 style="enable-background:new 0 0 1167.5 756;" xml:space="preserve">
<style type="text/css">
	.st0{opacity:0.1;fill:#0466C8;enable-background:new    ;}
	.st1{fill:url(#SVGID_1_);}
	.st2{fill:#FFFFFF;}
	.st3{fill:#EDEDF4;}
	.st4{opacity:0.8;fill:#FA5959;enable-background:new    ;}
	.st5{opacity:0.8;fill:#FED253;enable-background:new    ;}
	.st6{opacity:0.8;fill:#8CCF4D;enable-background:new    ;}
	.st7{fill:url(#SVGID_2_);}
	.st8{fill:url(#SVGID_3_);}
	.st9{fill:#A1616A;}
	.st10{fill:#3F3D56;}
	.st11{fill:#3943B7;}
	.st12{fill:#0466C8;}
	.st13{fill:#45A349;}
	.st14{opacity:0.1;enable-background:new    ;}
</style>
<ellipse class="st0" cx="560.8" cy="725" rx="541" ry="31"/>
<linearGradient id="SVGID_1_" gradientUnits="userSpaceOnUse" x1="588.24" y1="816.69" x2="588.24" y2="197.69" gradientTransform="matrix(1 0 0 1 -16.24 -83.99)">
	<stop  offset="0" style="stop-color:#808080;stop-opacity:0.25"/>
	<stop  offset="0.54" style="stop-color:#808080;stop-opacity:0.12"/>
	<stop  offset="1" style="stop-color:#808080;stop-opacity:0.1"/>
</linearGradient>
<path class="st1" d="M1056.3,113.7H87.6c-4.8,0-8.6,3.9-8.6,8.6l0,0v592.9c0,9.6,7.8,17.4,17.4,17.5l0,0h951.2
	c9.6,0,17.4-7.8,17.4-17.5l0,0V122.4C1064.9,117.6,1061.1,113.7,1056.3,113.7z"/>
<path class="st2" d="M1061,150.5v561.2c0,9.5-7.7,17.2-17.2,17.2H100.3c-9.5,0-17.3-7.7-17.3-17.3l0,0V150.5H1061z"/>
<path class="st3" d="M1061,125.6v24.9H83v-24.9c0-4.7,3.8-8.6,8.6-8.6h960.9C1057.2,117,1061,120.9,1061,125.6L1061,125.6z"/>
<circle class="st4" cx="98.5" cy="133.5" r="4"/>
<circle class="st5" cx="109.5" cy="133.5" r="4"/>
<circle class="st6" cx="120.5" cy="133.5" r="4"/>
<linearGradient id="SVGID_2_" gradientUnits="userSpaceOnUse" x1="680.68" y1="2002.83" x2="680.68" y2="1996.83" gradientTransform="matrix(6.123234e-17 1 -1 6.123234e-17 2625.76 -579.98)">
	<stop  offset="0" style="stop-color:#808080;stop-opacity:0.25"/>
	<stop  offset="0.54" style="stop-color:#808080;stop-opacity:0.12"/>
	<stop  offset="1" style="stop-color:#808080;stop-opacity:0.1"/>
</linearGradient>
<rect x="622.9" y="98.7" class="st7" width="6" height="4"/>
<rect x="307.9" y="199.7" class="st3" width="94" height="10"/>
<rect x="307.9" y="228.7" class="st3" width="528" height="10"/>
<rect x="307.9" y="257.7" class="st3" width="528" height="10"/>
<rect x="307.9" y="286.7" class="st3" width="528" height="10"/>
<rect x="307.9" y="315.7" class="st3" width="528" height="10"/>
<rect x="408.8" y="371" class="st3" width="326" height="252"/>
<linearGradient id="SVGID_3_" gradientUnits="userSpaceOnUse" x1="588.6118" y1="705.2153" x2="588.6118" y2="495.4563" gradientTransform="matrix(1 0 0 1 -16.24 -83.99)">
	<stop  offset="0" style="stop-color:#808080;stop-opacity:0.25"/>
	<stop  offset="0.54" style="stop-color:#808080;stop-opacity:0.12"/>
	<stop  offset="1" style="stop-color:#808080;stop-opacity:0.1"/>
</linearGradient>
<path class="st8" d="M629,449.1c-0.4,0-0.8,0.1-1.3,0.1c0.1-0.6,0.2-1.2,0.1-1.8c-0.1-2.5-0.8-5-2-7.2c-0.7-1.3-1.6-2.6-2.5-3.8
	c-2.7-3.8-5.2-7.6-8.2-11.1c-1.3-1.4-2.4-3-3.2-4.7c-0.3-0.9-0.7-1.8-1.1-2.7c-1.2-1.8-3.3-2.9-5.5-2.6c-2.1,0.3-4.1,1.3-5.5,2.9
	c-0.8,0.9-1.5,2.3-0.8,3.3s2.2,1.1,2.3,2.3c0,0.6,0,1.6-0.6,1.8c-1.1,0.3-2.1,0.7-3.1,1.3c-0.9,0.6-1.5,1.7-1.6,2.8
	c1.7,0.3,3.2-1.2,4.8-2c2-0.8,4.2-0.9,6.3-0.2c0.8,0.2,1.5,0.6,2.2,1.1c0.6,0.6,1,1.2,1.4,1.9c1.9,2.8,3.1,6,3.5,9.4l0.9,5.6
	c-1.3,0.1-2.6,0.3-3.9,0.5c-3.5,0.5-7,0.3-10.3-0.7c-3.5-1-7-2.8-10.6-2c-1.7,0.4-3.2,1.3-4.9,1.6c-1.3,0.1-2.7,0.1-4-0.2l-2.8-0.4
	c-0.1-0.2-0.2-0.5-0.2-0.7c-0.6-2-0.8-4.1-0.8-6.2c6.1-0.3,10.7-5.5,10.4-11.6c-0.1-1.4-0.4-2.8-1-4c1.5-0.8,2.7-2.1,3.5-3.5
	l-0.7-0.1l0.7-1c-0.6-0.3-0.7-1.1-0.4-1.6c0.1-0.1,0.1-0.2,0.2-0.2c-0.6-0.3-1.2-0.4-1.9-0.4c0.2-0.4-0.1-0.9-0.5-1
	s-0.9-0.1-1.3-0.1c-0.6,0-1.3-0.2-1.9-0.4c-4.3-1.5-8.9-2.8-13.2-1.5c-1.9,0.6-3.7,1.5-5.3,2.8c-3.2,1.8-4.4,5.8-2.8,9.1
	c0.7,1.6,1.1,3.3,1.4,5.1c0.1,1.6-0.1,3.3-0.5,4.8c1,0.3,1.9,0.5,2.9,0.6c-0.6,2.1-1.5,4.2-2.9,5.9c-0.6,0.8-1.3,1.5-2,2.2H562
	c-2,0.4-4,0.6-6,0.7c-2.1,0-4.2-0.8-6.3-0.7c-1.3,0.1-2.5,0.4-3.7,0.8c-5.5,1.6-11.2,2.4-16.9,2.3l-0.7,0.1l0.6-4.1
	c0.3-3.4,1.5-6.6,3.5-9.4c0.4-0.7,0.8-1.3,1.4-1.9c0.6-0.5,1.4-0.9,2.2-1.1c2-0.7,4.3-0.6,6.3,0.2c1.6,0.8,3,2.2,4.8,2
	c-0.1-1.1-0.7-2.2-1.6-2.8c-0.9-0.6-2-1.1-3.1-1.3c-0.6-0.2-0.7-1.2-0.6-1.8c0.1-1.1,1.7-1.4,2.3-2.3s0-2.4-0.8-3.3
	c-1.4-1.6-3.4-2.7-5.5-2.9c-2.2-0.2-4.3,0.8-5.4,2.6c-0.4,0.9-0.8,1.8-1.1,2.7c-0.8,1.7-1.9,3.3-3.2,4.7c-3,3.5-5.5,7.4-8.2,11.1
	c-0.9,1.2-1.7,2.4-2.5,3.8c-1.2,2.2-1.9,4.7-2,7.2c0,0.6,0,1.2,0.1,1.8c-0.1,0.1-0.1,0.3-0.1,0.5c0.1,0.6,0.3,1.1,0.8,1.4
	c1.5,1.5,3.1,3.1,5.2,3.8c1.3,0.3,2.6,0.5,3.9,0.7c3.2,0.6,6.1,2.4,9.3,2.4c2.2,0,4.4-0.9,6.6-0.6c3,0.4,5.2,2.8,7,5.2
	c1.6,1.8,2.7,4,3.5,6.3c0.7,2.8,0.3,5.9,1.8,8.4c0.4,0.5,0.7,1.1,0.9,1.7c0,0.9-0.2,1.9-0.6,2.7c-1.3,3.9,1.5,8,1.2,12
	c-0.1,2-1,3.8-1.1,5.7c-0.2,2.5,0.9,5.3-0.5,7.4c0.8-0.4,1.7-0.8,2.6-1.2c-4.2,12.3-8,25-7.7,37.9c0.2,8.4,2,17.6-2.8,24.5
	c-0.7,0.8-1.2,1.8-1.6,2.8c-0.4,1.3,0,2.8,0.2,4.2c0.9,6-2.3,11.9-2.6,18c0,1.9,0.1,3.8,0.4,5.6l1.2,10.1c-1.2,0.3-2.3,0.8-3.2,1.6
	c-1.2,1-2.3,2.6-1.8,4.1c0.5,1.2,1.8,1.8,3.1,2.1c1.3,0.1,2.5,0.6,3.6,1.4c0.3,0.4,0.7,0.7,1.1,1.1c0.7,0.4,1.6,0.6,2.4,0.5
	c1.5-0.1,3-0.2,4.6-0.4c0.3,0,0.6-0.1,0.9-0.3c0.4-0.4,0.6-1,0.5-1.5c0.1-1.5,0-3.1-0.2-4.6c-0.1-0.3-0.1-0.6-0.2-0.9
	c0.5-1.3,0.9-2.6,1.1-4c0.3-2,0.4-4.1,0.5-6.1c0.3-5.2,1-10.4,1.8-15.6l1-6.7c0.3-2.2,0.6-4.4,1-6.6c1.9-11.9,4.7-23.5,8.6-34.9
	c0.8-2.4,2.3-5.3,4.9-5.3l1.5,3c2,3.8,3.2,7.9,4.7,11.9c2,5.2,1.3,11.2,4,16.1c0.4,0.8,1,1.6,1.3,2.4c0.5,1.3,0.8,2.7,0.8,4.1
	l1.8,18c0.8,8.1,1.7,16.4,5.3,23.7c0.2,0.5,0.5,0.9,0.8,1.3c-0.1,1.2-0.1,2.4,0,3.6c-0.2,0.8,0.3,1.5,1,1.7c0.1,0,0.3,0,0.4,0
	c1.5,0.2,3,0.3,4.5,0.4c0.8,0.1,1.7,0,2.4-0.5c0.4-0.3,0.8-0.7,1.1-1.1c1.1-0.8,2.3-1.2,3.6-1.4c1.3-0.3,2.7-0.9,3.1-2.1
	c0.6-1.5-0.5-3.1-1.8-4.1c-1-0.9-2.2-1.5-3.6-1.7c-0.5,0-1.1,0-1.6-0.1c0.1-0.7,0.2-1.3,0.1-2c-0.1-0.8-0.2-1.6-0.1-2.4
	c0.2-0.8,0.5-1.6,0.8-2.3c1.2-3.5-1.3-7.1-2.2-10.8c-1.2-4.8,0.6-9.9,0.2-14.8c-0.5-7.8-5.9-15.1-4.5-22.7
	c1.2-6.1,0.2-12.4-0.9-18.5l-4-22.8c-0.3-1.9-0.8-3.7-1.5-5.4c0.7-0.1,1.5-0.3,2.2-0.6c1-2.4,0.8-5.1,0.5-7.8s-1-5.2-1.3-7.8
	c-0.3-2.1-0.5-4.2-0.5-6.3c-0.1-2.1,0-4.2,0.4-6.2c0.5-1.8,1.1-3.5,1.9-5.2c1.9-4.9,4.3-9.5,7-14c4.1-0.3,8.1-0.7,12.2-1
	c1,0,2-0.2,2.9-0.4c1.2-0.4,2.5-0.8,3.7-1.1c0.5,0,0.9-0.1,1.4-0.3c0.9-0.4,1.5-1.6,2.4-1.6c0.4,0,0.7,0,1.1,0c0.4-0.1,0.7-0.6,1-1
	c0.6-0.7,1.6-0.8,2.4-1.3C629.1,452.5,629.6,450.7,629,449.1z"/>
<circle class="st9" cx="576.9" cy="427.2" r="11"/>
<path class="st9" d="M564.2,440.9c-1.1,1.4-2.4,2.7-3.8,3.8c6.5,3.9,14.1,5.1,21.5,3.5c-0.3-0.8-1.2-0.9-1.9-1.2
	c-0.9-0.6-1.5-1.6-1.7-2.7c-0.7-2.6-1-5.4-0.6-8.1c0.1-0.7,0.1-1.3,0-2c-0.4-1-1.1-1.8-2.1-2.3c-1.6-1-3.2-1.7-5-2.2
	s-2.9-0.8-2.9,1.3C567.6,434.5,566.4,438,564.2,440.9z"/>
<path class="st9" d="M615.3,447.8l-1.1-7.1c-0.2-1.4-0.5-2.8-0.9-4.2c-0.7-1.8-1.5-3.5-2.6-5.1c-0.4-0.7-0.8-1.3-1.4-1.9
	c-0.6-0.5-1.4-0.9-2.2-1.1c-2-0.7-4.3-0.6-6.3,0.2c-1.6,0.8-3,2.2-4.8,2c0.1-1.1,0.7-2.2,1.6-2.8c0.9-0.6,1.9-1.1,3-1.3
	c0.6-0.2,0.7-1.2,0.6-1.8c-0.1-1.1-1.7-1.4-2.3-2.3s0-2.4,0.8-3.3c1.4-1.6,3.4-2.6,5.5-2.9c2.2-0.2,4.3,0.8,5.4,2.6
	c0.4,0.9,0.8,1.8,1.1,2.7c0.8,1.7,1.9,3.3,3.2,4.6c3,3.5,5.5,7.4,8.2,11.1c0.9,1.2,1.7,2.4,2.5,3.7c1.2,2.2,1.9,4.7,2,7.2
	c0.1,0.8,0,1.6-0.3,2.3c-0.6,1.1-1.8,1.7-3,1.7s-2.4-0.3-3.6-0.7l-4.4-1.5c-0.5-0.1-1-0.4-1.4-0.8
	C614.8,448.8,614.8,448.1,615.3,447.8z"/>
<path class="st9" d="M528.1,449.3l1.1-7.1c0.2-1.4,0.5-2.8,0.9-4.2c0.7-1.8,1.5-3.5,2.6-5.1c0.4-0.7,0.8-1.3,1.4-1.9
	c0.6-0.5,1.4-0.9,2.2-1.1c2-0.7,4.3-0.6,6.3,0.2c1.6,0.8,3,2.2,4.8,2c-0.1-1.1-0.7-2.2-1.6-2.8c-0.9-0.6-1.9-1.1-3-1.3
	c-0.6-0.2-0.7-1.2-0.6-1.8c0.1-1.1,1.7-1.4,2.3-2.3s0-2.4-0.8-3.3c-1.4-1.6-3.4-2.7-5.5-2.9c-2.2-0.2-4.3,0.8-5.4,2.6
	c-0.4,0.9-0.8,1.8-1.1,2.7c-0.8,1.7-1.9,3.3-3.2,4.6c-3,3.5-5.5,7.4-8.2,11.1c-0.9,1.2-1.7,2.4-2.5,3.7c-1.2,2.2-1.9,4.7-2,7.2
	c-0.1,0.8,0,1.6,0.3,2.3c0.6,1.1,1.8,1.7,3,1.7s2.4-0.3,3.6-0.7l4.4-1.4c0.5-0.1,1-0.4,1.4-0.8C528.7,450.4,528.6,449.7,528.1,449.3
	z"/>
<path class="st10" d="M607.3,611.4c1.2,1,2.3,2.6,1.8,4.1c-0.5,1.2-1.8,1.8-3.1,2.1c-1.3,0.1-2.5,0.6-3.6,1.4
	c-0.3,0.4-0.7,0.7-1.1,1c-0.7,0.4-1.6,0.6-2.4,0.5c-1.5-0.1-3-0.2-4.5-0.4c-0.3,0-0.6-0.1-0.9-0.3c-0.4-0.4-0.6-0.9-0.5-1.5
	c-0.1-1.5-0.1-3,0.2-4.5s1-2.9,2.2-3.9c1.2-0.9,4.7-3.6,6-1.9c0.3,0.5,0.2,1.1,0.7,1.5s1.3,0.2,1.8,0.2
	C605.1,609.9,606.3,610.5,607.3,611.4z"/>
<path class="st10" d="M539.8,611.9c-1.2,1-2.3,2.6-1.8,4.1c0.5,1.2,1.8,1.8,3.1,2.1c1.3,0.1,2.5,0.6,3.6,1.4
	c0.3,0.4,0.7,0.7,1.1,1.1c0.7,0.4,1.6,0.6,2.4,0.5c1.5-0.1,3-0.2,4.5-0.4c0.3,0,0.6-0.1,0.9-0.3c0.4-0.4,0.6-0.9,0.5-1.5
	c0.1-1.5,0-3-0.2-4.5s-1-2.9-2.2-3.9c-1.2-0.9-4.7-3.6-6-1.9c-0.3,0.5-0.2,1.1-0.7,1.5s-1.2,0.2-1.8,0.2
	C542,610.5,540.8,611.1,539.8,611.9z"/>
<path class="st10" d="M556.8,505.2c-4.5,13-8.9,26.5-8.5,40.2c0.2,8.3,2,17.5-2.8,24.4c-0.7,0.8-1.2,1.7-1.6,2.7
	c-0.4,1.3,0,2.8,0.2,4.1c0.9,6-2.3,11.9-2.6,17.9c0,1.9,0.1,3.7,0.4,5.6l1.2,10.7c0.4,3.7,5.1,5.2,8.8,5.7c1.7-2,2.8-4.5,3.1-7.2
	c0.3-2,0.4-4.1,0.5-6.1c0.3-5.2,1.1-10.4,1.8-15.5l1-6.6c0.3-2.2,0.6-4.4,1-6.5c1.9-11.8,4.8-23.4,8.6-34.6c0.8-2.4,2.3-5.3,4.9-5.3
	l1.5,2.9c2,3.7,3.2,7.9,4.7,11.8c2,5.2,1.3,11.2,4,16.1c0.4,0.8,1,1.6,1.3,2.4c0.5,1.3,0.7,2.6,0.8,4l1.8,17.9
	c0.8,8,1.7,16.3,5.3,23.5c0.4,0.9,0.9,1.6,1.7,2.2c1.5,1,3.5,0.5,5-0.5c2.3-1.7,3.6-4.5,3.5-7.4c-0.1-0.8-0.2-1.6-0.1-2.4
	c0.2-0.8,0.5-1.6,0.8-2.3c1.2-3.5-1.3-7.1-2.2-10.7c-1.2-4.8,0.6-9.8,0.3-14.8c-0.5-7.7-5.9-15-4.5-22.6c1.2-6.1,0.2-12.3-0.9-18.5
	l-4-22.7c-0.6-3.6-1.6-7.6-4.8-9.4c-1.8-0.8-3.8-1.2-5.8-1C572.8,503.3,564.9,504.5,556.8,505.2z"/>
<path class="st11" d="M629,449.9c-2.9,0.3-5.8-0.3-8.4-1.7c-1-0.6-2-1.2-3.1-1.6c-2-0.7-4.2-0.1-6.3,0.2c-3.4,0.5-7,0.3-10.3-0.7
	c-3.5-1-7-2.8-10.6-2c-1.7,0.4-3.2,1.3-4.9,1.6c-1.3,0.1-2.7,0.1-4-0.2l-11.4-1.8c-2.6-0.5-5.2-0.7-7.8-0.6c-2,0.4-4,0.6-6,0.8
	c-2.1,0-4.2-0.8-6.3-0.7c-1.2,0.1-2.5,0.4-3.7,0.8c-5.5,1.6-11.2,2.4-16.9,2.2c-4.5,0.3-8.9,1.8-12.7,4.4c-0.5,0.3-0.9,0.8-1,1.4
	c0.1,0.5,0.4,1,0.8,1.4c1.5,1.5,3.1,3.1,5.2,3.8c1.3,0.3,2.6,0.5,3.9,0.7c3.2,0.6,6.1,2.4,9.3,2.4c2.2,0,4.4-0.9,6.6-0.6
	c3,0.4,5.2,2.8,7,5.2c1.6,1.8,2.7,4,3.5,6.3c0.7,2.8,0.3,5.9,1.8,8.3c0.4,0.5,0.7,1.1,0.9,1.7c0,0.9-0.2,1.9-0.6,2.7
	c-1.3,3.8,1.5,7.9,1.2,12c-0.1,1.9-1,3.8-1.1,5.7c-0.1,2.5,0.9,5.3-0.5,7.4c5.4-2.7,11.4-4,17.5-3.8c1,0,2,0.1,3,0.3
	c1.9,0.4,3.8,0.9,5.7,1.6c4.2,1.3,8.8,2.3,12.9,0.8c1-2.4,0.8-5.1,0.5-7.7s-1-5.2-1.3-7.8c-0.3-2.1-0.5-4.2-0.5-6.3
	c-0.1-2.1,0-4.2,0.4-6.2c0.5-1.8,1.1-3.5,1.9-5.2c1.9-4.9,4.3-9.5,7-14c4.1-0.3,8.1-0.7,12.2-1c1-0.1,2-0.2,2.9-0.4
	c1.2-0.4,2.5-0.8,3.7-1.1c0.5,0,0.9-0.1,1.4-0.3c0.9-0.4,1.5-1.5,2.4-1.6c0.4,0,0.7,0,1.1,0c0.4-0.1,0.7-0.6,1-1
	c0.6-0.7,1.6-0.8,2.4-1.3C628.9,453.2,629.5,451.5,629,449.9z"/>
<path class="st10" d="M578.9,431.1c0.7,0.5,1.6,0.6,2.3,0.1c0.4-0.4,0.7-1,0.8-1.5c0.4-1.2,0.7-2.5,0.9-3.8c0.1-0.6,0.2-1.1,0.5-1.6
	c0.7-1.1,2.3-1.2,3.5-1.7c1.5-0.8,2.8-2.1,3.6-3.6l-0.7-0.1l0.7-1c-0.5-0.3-0.7-1-0.4-1.6c0.1-0.1,0.1-0.2,0.2-0.3
	c-0.6-0.3-1.2-0.5-1.9-0.4c0.2-0.4-0.1-0.9-0.5-1s-0.9-0.1-1.3-0.1c-0.6-0.1-1.3-0.2-1.9-0.4c-4.3-1.5-8.9-2.8-13.2-1.5
	c-1.9,0.6-3.7,1.5-5.3,2.8c-3.2,1.8-4.4,5.7-2.8,9c0.7,1.6,1.1,3.3,1.4,5c0.1,1.6-0.1,3.2-0.5,4.8c1.2,0.4,2.4,0.6,3.7,0.7
	c1.2,0.1,2.5-0.3,3.5-1c1-0.9,1.6-2.2,2.4-3.3c0.6-1,1.7-1.5,2.9-1.5C577.8,429.4,578,430.5,578.9,431.1z"/>
<path class="st10" d="M549.9,620h-11.7c-0.8,0.2-1.4,1-1.2,1.8c0.1,0.6,0.6,1.1,1.2,1.2h2.3v19.9h-40.1c-0.2-0.3-0.5-0.5-0.9-0.5
	h-11.7c-0.8,0.2-1.4,1-1.2,1.8c0.1,0.6,0.6,1.1,1.2,1.2h2.3v20.4h-38.7c-0.1-0.6-0.5-1-1.1-1.1h-11.7c-0.8,0.1-1.4,0.9-1.3,1.7
	c0.1,0.6,0.6,1.1,1.3,1.3h1.2v21h-39.3c-0.1-0.1-0.3-0.1-0.5-0.1h-11.7c-0.8,0.2-1.4,1-1.2,1.8c0.1,0.6,0.6,1.1,1.2,1.2h1.2v20
	h-38.8c-0.2-0.4-0.6-0.7-1-0.7H338c-0.8,0.2-1.4,1-1.2,1.8c0.1,0.6,0.6,1.1,1.2,1.2h1.2V736h264.5V620H549.9z"/>
<path class="st0" d="M173,236.3c-1.2-1.5-2.5-2.9-3.9-4.2c-1.4-1.2-1.5-3.3-0.3-4.7c0.2-0.2,0.4-0.4,0.7-0.6c0.5-0.3,0.9-0.6,1.4-1
	c5.5-4.1,8.2-9.7,6.1-12.5s-8.2-1.6-13.6,2.6c-0.6,0.5-1.2,1-1.8,1.5c-1.4,1.2-3.5,1.1-4.7-0.3c-0.2-0.2-0.4-0.5-0.5-0.7
	c-0.8-1.5-1.7-2.9-2.7-4.3c-4.9-6.4-11.4-9.6-14.6-7.2s-1.9,9.6,3,16c0.9,1.3,2,2.4,3.1,3.5c1.3,1.3,1.4,3.4,0.1,4.8
	c-0.2,0.2-0.5,0.4-0.8,0.6l0,0c-6,3.4-9.4,8.6-7.7,11.6s7.9,2.6,13.9-0.8c0.9-0.5,1.8-1.1,2.7-1.8c1.5-1.1,3.6-0.8,4.7,0.6
	c0.1,0.2,0.3,0.4,0.4,0.6c0.8,1.8,1.8,3.4,3,5c4.9,6.4,11.4,9.6,14.6,7.2S177.9,242.7,173,236.3z"/>
<path class="st0" d="M881.3,409.1c1.1-1.5,2.1-3.2,2.9-5c0.7-1.7,2.7-2.4,4.4-1.7c0.3,0.1,0.6,0.3,0.8,0.5c0.4,0.4,0.9,0.7,1.4,1.1
	c5.6,4,11.7,5,13.7,2.2s-0.9-8.3-6.4-12.3c-0.7-0.5-1.3-0.9-2-1.3c-1.6-1-2.1-3-1.1-4.6c0.2-0.3,0.4-0.5,0.6-0.7
	c1.2-1.2,2.3-2.4,3.3-3.8c4.7-6.5,5.9-13.7,2.7-16s-9.7,1-14.4,7.5c-0.9,1.3-1.7,2.6-2.4,4c-0.9,1.7-2.9,2.3-4.6,1.5
	c-0.3-0.2-0.6-0.4-0.8-0.6l0,0c-5-4.7-11-6.5-13.3-4s-0.2,8.3,4.8,13c0.8,0.7,1.6,1.4,2.5,2c1.5,1.1,1.9,3.2,0.8,4.7
	c-0.1,0.2-0.3,0.4-0.5,0.5c-1.5,1.3-2.8,2.8-3.9,4.4c-4.7,6.5-5.9,13.7-2.6,16S876.6,415.6,881.3,409.1z"/>
<ellipse class="st12" cx="886.5" cy="740.2" rx="33.8" ry="6.5"/>
<ellipse class="st10" cx="885.9" cy="737.4" rx="3.9" ry="5.2"/>
<ellipse class="st10" cx="885.9" cy="731.1" rx="3.9" ry="5.2"/>
<ellipse class="st10" cx="885.9" cy="724.8" rx="3.9" ry="5.2"/>
<ellipse class="st10" cx="885.9" cy="718.5" rx="3.9" ry="5.2"/>
<ellipse class="st10" cx="885.9" cy="712.2" rx="3.9" ry="5.2"/>
<ellipse class="st10" cx="885.9" cy="706" rx="3.9" ry="5.2"/>
<ellipse class="st10" cx="885.9" cy="699.7" rx="3.9" ry="5.2"/>
<path class="st13" d="M900.6,656.6c0.5-0.7,1-1.4,1.5-2.2l-10.3-1.7l11.2,0.1c2.2-4.7,2.3-10.1,0.4-14.9l-15,7.8l13.8-10.2
	c-5.2-9-16.8-12-25.8-6.8s-12,16.8-6.8,25.8c0.4,0.7,0.9,1.4,1.4,2.1c-0.8,1.1-1.6,2.2-2.2,3.4l13.4,7l-14.3-4.8
	c-2,6-0.9,12.7,3,17.7c-6.4,8.2-5,20,3.2,26.5c8.2,6.4,20,5,26.5-3.2c5.4-6.8,5.4-16.5,0-23.3C906,673.1,906,663.4,900.6,656.6
	L900.6,656.6z"/>
<path class="st14" d="M867,668.2c0,4.2,1.4,8.3,4,11.7c-6.4,8.2-5,20,3.2,26.5c8.2,6.4,20,5,26.5-3.2c5.4-6.8,5.4-16.5,0-23.3
	C903.2,676.7,867,666.1,867,668.2z"/>
<ellipse class="st12" cx="270.5" cy="741.7" rx="15.3" ry="2.9"/>
<ellipse class="st10" cx="270.2" cy="740.5" rx="1.8" ry="2.3"/>
<ellipse class="st10" cx="270.2" cy="737.6" rx="1.8" ry="2.3"/>
<ellipse class="st10" cx="270.2" cy="734.8" rx="1.8" ry="2.3"/>
<ellipse class="st10" cx="270.2" cy="731.9" rx="1.8" ry="2.3"/>
<ellipse class="st10" cx="270.2" cy="729.1" rx="1.8" ry="2.3"/>
<ellipse class="st10" cx="270.2" cy="726.2" rx="1.8" ry="2.3"/>
<ellipse class="st10" cx="270.2" cy="723.4" rx="1.8" ry="2.3"/>
<path class="st13" d="M276.9,703.9c0.2-0.3,0.5-0.7,0.7-1l-4.7-0.8h5.1c0.5-1.1,0.8-2.3,0.8-3.6c0-1.1-0.2-2.2-0.6-3.2l-6.8,3.5
	l6.3-4.6c-2.4-4.1-7.6-5.4-11.7-3.1c-4.1,2.4-5.4,7.6-3.1,11.7c0.2,0.3,0.4,0.6,0.6,0.9c-0.4,0.5-0.7,1-1,1.5l6.1,3.2l-6.5-2.2
	c-0.9,2.7-0.4,5.7,1.4,8c-2.9,3.7-2.3,9.1,1.4,12c3.7,2.9,9.1,2.3,12-1.4c2.4-3.1,2.4-7.5,0-10.6
	C279.3,711.3,279.3,706.9,276.9,703.9L276.9,703.9z"/>
<path class="st14" d="M261.6,709.2c0,1.9,0.6,3.8,1.8,5.3c-2.9,3.7-2.3,9.1,1.4,12c3.7,2.9,9.1,2.3,12-1.4c2.4-3.1,2.4-7.5,0-10.6
	C278,713,261.6,708.2,261.6,709.2z"/>
</svg>
