<svg xmlns="http://www.w3.org/2000/svg" version="1.1" xmlns:xlink="http://www.w3.org/1999/xlink" xmlns:svgjs="http://svgjs.com/svgjs" width="1440" height="560" preserveAspectRatio="none" viewBox="0 0 1440 560"><g mask="url(&quot;#SvgjsMask1000&quot;)" fill="none"><path d="M22.13 421.75L87.08 459.25L87.08 534.25L22.13 571.75L-42.82 534.25L-42.82 459.25zM152.04 196.75L216.99 234.25L216.99 309.25L152.04 346.75L87.08 309.25L87.08 234.25zM216.99 534.25L281.94 571.75L281.94 646.75L216.99 684.25L152.04 646.75L152.04 571.75zM346.9 309.25L411.85 346.75L411.85 421.75L346.9 459.25L281.94 421.75L281.94 346.75zM476.81 309.25L541.76 346.75L541.76 421.75L476.81 459.25L411.85 421.75L411.85 346.75zM541.76 -28.25L606.71 9.25L606.71 84.25L541.76 121.75L476.81 84.25L476.81 9.25zM606.71 309.25L671.67 346.75L671.67 421.75L606.71 459.25L541.76 421.75L541.76 346.75zM606.71 534.25L671.67 571.75L671.67 646.75L606.71 684.25L541.76 646.75L541.76 571.75zM736.62 84.25L801.58 121.75L801.58 196.75L736.62 234.25L671.67 196.75L671.67 121.75zM801.57 -28.25L866.53 9.25L866.53 84.25L801.57 121.75L736.62 84.25L736.62 9.25zM866.53 84.25L931.48 121.75L931.48 196.75L866.53 234.25L801.57 196.75L801.57 121.75zM996.44 309.25L1061.39 346.75L1061.39 421.75L996.44 459.25L931.48 421.75L931.48 346.75zM1126.34 309.25L1191.3 346.75L1191.3 421.75L1126.34 459.25L1061.39 421.75L1061.39 346.75zM1061.39 421.75L1126.34 459.25L1126.34 534.25L1061.39 571.75L996.44 534.25L996.44 459.25zM1321.21 421.75L1386.16 459.25L1386.16 534.25L1321.21 571.75L1256.25 534.25L1256.25 459.25zM1386.16 534.25L1451.11 571.75L1451.11 646.75L1386.16 684.25L1321.21 646.75L1321.21 571.75zM1516.07 84.25L1581.02 121.75L1581.02 196.75L1516.07 234.25L1451.11 196.75L1451.11 121.75zM1451.11 196.75L1516.07 234.25L1516.07 309.25L1451.11 346.75L1386.16 309.25L1386.16 234.25zM1516.07 534.25L1581.02 571.75L1581.02 646.75L1516.07 684.25L1451.11 646.75L1451.11 571.75z" stroke="rgba(0, 0, 0, 0)" stroke-width="2"></path><path d="M14.63 421.75 a7.5 7.5 0 1 0 15 0 a7.5 7.5 0 1 0 -15 0zM79.58 459.25 a7.5 7.5 0 1 0 15 0 a7.5 7.5 0 1 0 -15 0zM79.58 534.25 a7.5 7.5 0 1 0 15 0 a7.5 7.5 0 1 0 -15 0zM14.63 571.75 a7.5 7.5 0 1 0 15 0 a7.5 7.5 0 1 0 -15 0zM-50.32 534.25 a7.5 7.5 0 1 0 15 0 a7.5 7.5 0 1 0 -15 0zM-50.32 459.25 a7.5 7.5 0 1 0 15 0 a7.5 7.5 0 1 0 -15 0zM144.54 196.75 a7.5 7.5 0 1 0 15 0 a7.5 7.5 0 1 0 -15 0zM209.49 234.25 a7.5 7.5 0 1 0 15 0 a7.5 7.5 0 1 0 -15 0zM209.49 309.25 a7.5 7.5 0 1 0 15 0 a7.5 7.5 0 1 0 -15 0zM144.54 346.75 a7.5 7.5 0 1 0 15 0 a7.5 7.5 0 1 0 -15 0zM79.58 309.25 a7.5 7.5 0 1 0 15 0 a7.5 7.5 0 1 0 -15 0zM79.58 234.25 a7.5 7.5 0 1 0 15 0 a7.5 7.5 0 1 0 -15 0zM209.49 534.25 a7.5 7.5 0 1 0 15 0 a7.5 7.5 0 1 0 -15 0zM274.44 571.75 a7.5 7.5 0 1 0 15 0 a7.5 7.5 0 1 0 -15 0zM274.44 646.75 a7.5 7.5 0 1 0 15 0 a7.5 7.5 0 1 0 -15 0zM209.49 684.25 a7.5 7.5 0 1 0 15 0 a7.5 7.5 0 1 0 -15 0zM144.54 646.75 a7.5 7.5 0 1 0 15 0 a7.5 7.5 0 1 0 -15 0zM144.54 571.75 a7.5 7.5 0 1 0 15 0 a7.5 7.5 0 1 0 -15 0zM339.4 309.25 a7.5 7.5 0 1 0 15 0 a7.5 7.5 0 1 0 -15 0zM404.35 346.75 a7.5 7.5 0 1 0 15 0 a7.5 7.5 0 1 0 -15 0zM404.35 421.75 a7.5 7.5 0 1 0 15 0 a7.5 7.5 0 1 0 -15 0zM339.4 459.25 a7.5 7.5 0 1 0 15 0 a7.5 7.5 0 1 0 -15 0zM274.44 421.75 a7.5 7.5 0 1 0 15 0 a7.5 7.5 0 1 0 -15 0zM274.44 346.75 a7.5 7.5 0 1 0 15 0 a7.5 7.5 0 1 0 -15 0zM469.31 309.25 a7.5 7.5 0 1 0 15 0 a7.5 7.5 0 1 0 -15 0zM534.26 346.75 a7.5 7.5 0 1 0 15 0 a7.5 7.5 0 1 0 -15 0zM534.26 421.75 a7.5 7.5 0 1 0 15 0 a7.5 7.5 0 1 0 -15 0zM469.31 459.25 a7.5 7.5 0 1 0 15 0 a7.5 7.5 0 1 0 -15 0zM534.26 -28.25 a7.5 7.5 0 1 0 15 0 a7.5 7.5 0 1 0 -15 0zM599.21 9.25 a7.5 7.5 0 1 0 15 0 a7.5 7.5 0 1 0 -15 0zM599.21 84.25 a7.5 7.5 0 1 0 15 0 a7.5 7.5 0 1 0 -15 0zM534.26 121.75 a7.5 7.5 0 1 0 15 0 a7.5 7.5 0 1 0 -15 0zM469.31 84.25 a7.5 7.5 0 1 0 15 0 a7.5 7.5 0 1 0 -15 0zM469.31 9.25 a7.5 7.5 0 1 0 15 0 a7.5 7.5 0 1 0 -15 0zM599.21 309.25 a7.5 7.5 0 1 0 15 0 a7.5 7.5 0 1 0 -15 0zM664.17 346.75 a7.5 7.5 0 1 0 15 0 a7.5 7.5 0 1 0 -15 0zM664.17 421.75 a7.5 7.5 0 1 0 15 0 a7.5 7.5 0 1 0 -15 0zM599.21 459.25 a7.5 7.5 0 1 0 15 0 a7.5 7.5 0 1 0 -15 0zM599.21 534.25 a7.5 7.5 0 1 0 15 0 a7.5 7.5 0 1 0 -15 0zM664.17 571.75 a7.5 7.5 0 1 0 15 0 a7.5 7.5 0 1 0 -15 0zM664.17 646.75 a7.5 7.5 0 1 0 15 0 a7.5 7.5 0 1 0 -15 0zM599.21 684.25 a7.5 7.5 0 1 0 15 0 a7.5 7.5 0 1 0 -15 0zM534.26 646.75 a7.5 7.5 0 1 0 15 0 a7.5 7.5 0 1 0 -15 0zM534.26 571.75 a7.5 7.5 0 1 0 15 0 a7.5 7.5 0 1 0 -15 0zM729.12 84.25 a7.5 7.5 0 1 0 15 0 a7.5 7.5 0 1 0 -15 0zM794.08 121.75 a7.5 7.5 0 1 0 15 0 a7.5 7.5 0 1 0 -15 0zM794.08 196.75 a7.5 7.5 0 1 0 15 0 a7.5 7.5 0 1 0 -15 0zM729.12 234.25 a7.5 7.5 0 1 0 15 0 a7.5 7.5 0 1 0 -15 0zM664.17 196.75 a7.5 7.5 0 1 0 15 0 a7.5 7.5 0 1 0 -15 0zM664.17 121.75 a7.5 7.5 0 1 0 15 0 a7.5 7.5 0 1 0 -15 0zM794.07 -28.25 a7.5 7.5 0 1 0 15 0 a7.5 7.5 0 1 0 -15 0zM859.03 9.25 a7.5 7.5 0 1 0 15 0 a7.5 7.5 0 1 0 -15 0zM859.03 84.25 a7.5 7.5 0 1 0 15 0 a7.5 7.5 0 1 0 -15 0zM794.07 121.75 a7.5 7.5 0 1 0 15 0 a7.5 7.5 0 1 0 -15 0zM729.12 9.25 a7.5 7.5 0 1 0 15 0 a7.5 7.5 0 1 0 -15 0zM923.98 121.75 a7.5 7.5 0 1 0 15 0 a7.5 7.5 0 1 0 -15 0zM923.98 196.75 a7.5 7.5 0 1 0 15 0 a7.5 7.5 0 1 0 -15 0zM859.03 234.25 a7.5 7.5 0 1 0 15 0 a7.5 7.5 0 1 0 -15 0zM794.07 196.75 a7.5 7.5 0 1 0 15 0 a7.5 7.5 0 1 0 -15 0zM988.94 309.25 a7.5 7.5 0 1 0 15 0 a7.5 7.5 0 1 0 -15 0zM1053.89 346.75 a7.5 7.5 0 1 0 15 0 a7.5 7.5 0 1 0 -15 0zM1053.89 421.75 a7.5 7.5 0 1 0 15 0 a7.5 7.5 0 1 0 -15 0zM988.94 459.25 a7.5 7.5 0 1 0 15 0 a7.5 7.5 0 1 0 -15 0zM923.98 421.75 a7.5 7.5 0 1 0 15 0 a7.5 7.5 0 1 0 -15 0zM923.98 346.75 a7.5 7.5 0 1 0 15 0 a7.5 7.5 0 1 0 -15 0zM1118.84 309.25 a7.5 7.5 0 1 0 15 0 a7.5 7.5 0 1 0 -15 0zM1183.8 346.75 a7.5 7.5 0 1 0 15 0 a7.5 7.5 0 1 0 -15 0zM1183.8 421.75 a7.5 7.5 0 1 0 15 0 a7.5 7.5 0 1 0 -15 0zM1118.84 459.25 a7.5 7.5 0 1 0 15 0 a7.5 7.5 0 1 0 -15 0zM1118.84 534.25 a7.5 7.5 0 1 0 15 0 a7.5 7.5 0 1 0 -15 0zM1053.89 571.75 a7.5 7.5 0 1 0 15 0 a7.5 7.5 0 1 0 -15 0zM988.94 534.25 a7.5 7.5 0 1 0 15 0 a7.5 7.5 0 1 0 -15 0zM1313.71 421.75 a7.5 7.5 0 1 0 15 0 a7.5 7.5 0 1 0 -15 0zM1378.66 459.25 a7.5 7.5 0 1 0 15 0 a7.5 7.5 0 1 0 -15 0zM1378.66 534.25 a7.5 7.5 0 1 0 15 0 a7.5 7.5 0 1 0 -15 0zM1313.71 571.75 a7.5 7.5 0 1 0 15 0 a7.5 7.5 0 1 0 -15 0zM1248.75 534.25 a7.5 7.5 0 1 0 15 0 a7.5 7.5 0 1 0 -15 0zM1248.75 459.25 a7.5 7.5 0 1 0 15 0 a7.5 7.5 0 1 0 -15 0zM1443.61 571.75 a7.5 7.5 0 1 0 15 0 a7.5 7.5 0 1 0 -15 0zM1443.61 646.75 a7.5 7.5 0 1 0 15 0 a7.5 7.5 0 1 0 -15 0zM1378.66 684.25 a7.5 7.5 0 1 0 15 0 a7.5 7.5 0 1 0 -15 0zM1313.71 646.75 a7.5 7.5 0 1 0 15 0 a7.5 7.5 0 1 0 -15 0zM1508.57 84.25 a7.5 7.5 0 1 0 15 0 a7.5 7.5 0 1 0 -15 0zM1573.52 121.75 a7.5 7.5 0 1 0 15 0 a7.5 7.5 0 1 0 -15 0zM1573.52 196.75 a7.5 7.5 0 1 0 15 0 a7.5 7.5 0 1 0 -15 0zM1508.57 234.25 a7.5 7.5 0 1 0 15 0 a7.5 7.5 0 1 0 -15 0zM1443.61 196.75 a7.5 7.5 0 1 0 15 0 a7.5 7.5 0 1 0 -15 0zM1443.61 121.75 a7.5 7.5 0 1 0 15 0 a7.5 7.5 0 1 0 -15 0zM1508.57 309.25 a7.5 7.5 0 1 0 15 0 a7.5 7.5 0 1 0 -15 0zM1443.61 346.75 a7.5 7.5 0 1 0 15 0 a7.5 7.5 0 1 0 -15 0zM1378.66 309.25 a7.5 7.5 0 1 0 15 0 a7.5 7.5 0 1 0 -15 0zM1378.66 234.25 a7.5 7.5 0 1 0 15 0 a7.5 7.5 0 1 0 -15 0zM1508.57 534.25 a7.5 7.5 0 1 0 15 0 a7.5 7.5 0 1 0 -15 0zM1573.52 571.75 a7.5 7.5 0 1 0 15 0 a7.5 7.5 0 1 0 -15 0zM1573.52 646.75 a7.5 7.5 0 1 0 15 0 a7.5 7.5 0 1 0 -15 0zM1508.57 684.25 a7.5 7.5 0 1 0 15 0 a7.5 7.5 0 1 0 -15 0z" fill="rgba(0, 0, 0, 0)"></path><path d="M77.59 39.35L120.9 64.35L120.9 114.35L77.59 139.35L34.29 114.35L34.29 64.35zM120.9 -35.65L164.2 -10.65L164.2 39.35L120.9 64.35L77.59 39.35L77.59 -10.65zM120.9 264.35L164.2 289.35L164.2 339.35L120.9 364.35L77.59 339.35L77.59 289.35zM207.5 414.35L250.8 439.35L250.8 489.35L207.5 514.35L164.2 489.35L164.2 439.35zM294.11 114.35L337.41 139.35L337.41 189.35L294.11 214.35L250.8 189.35L250.8 139.35zM337.41 339.35L380.71 364.35L380.71 414.35L337.41 439.35L294.11 414.35L294.11 364.35zM380.71 264.35L424.01 289.35L424.01 339.35L380.71 364.35L337.41 339.35L337.41 289.35zM424.01 339.35L467.32 364.35L467.32 414.35L424.01 439.35L380.71 414.35L380.71 364.35zM467.32 -35.65L510.62 -10.65L510.62 39.35L467.32 64.35L424.01 39.35L424.01 -10.65zM510.62 339.35L553.92 364.35L553.92 414.35L510.62 439.35L467.32 414.35L467.32 364.35zM467.32 414.35L510.62 439.35L510.62 489.35L467.32 514.35L424.01 489.35L424.01 439.35zM510.62 489.35L553.92 514.35L553.92 564.35L510.62 589.35L467.32 564.35L467.32 514.35zM597.22 39.35L640.52 64.35L640.52 114.35L597.22 139.35L553.92 114.35L553.92 64.35zM553.92 114.35L597.22 139.35L597.22 189.35L553.92 214.35L510.62 189.35L510.62 139.35zM553.92 414.35L597.22 439.35L597.22 489.35L553.92 514.35L510.62 489.35L510.62 439.35zM683.83 339.35L727.13 364.35L727.13 414.35L683.83 439.35L640.52 414.35L640.52 364.35zM640.52 414.35L683.83 439.35L683.83 489.35L640.52 514.35L597.22 489.35L597.22 439.35zM770.43 339.35L813.74 364.35L813.74 414.35L770.43 439.35L727.13 414.35L727.13 364.35zM857.04 189.35L900.34 214.35L900.34 264.35L857.04 289.35L813.74 264.35L813.74 214.35zM813.74 264.35L857.04 289.35L857.04 339.35L813.74 364.35L770.43 339.35L770.43 289.35zM813.74 414.35L857.04 439.35L857.04 489.35L813.74 514.35L770.43 489.35L770.43 439.35zM943.64 189.35L986.95 214.35L986.95 264.35L943.64 289.35L900.34 264.35L900.34 214.35zM1116.85 489.35L1160.15 514.35L1160.15 564.35L1116.85 589.35L1073.55 564.35L1073.55 514.35zM1246.76 264.35L1290.06 289.35L1290.06 339.35L1246.76 364.35L1203.46 339.35L1203.46 289.35zM1376.67 189.35L1419.97 214.35L1419.97 264.35L1376.67 289.35L1333.37 264.35L1333.37 214.35zM1333.37 414.35L1376.67 439.35L1376.67 489.35L1333.37 514.35L1290.06 489.35L1290.06 439.35zM1463.27 489.35L1506.58 514.35L1506.58 564.35L1463.27 589.35L1419.97 564.35L1419.97 514.35z" stroke="rgba(0, 0, 0, 0)" stroke-width="2"></path></g><defs><mask id="SvgjsMask1000"><rect width="1440" height="560" fill="#ffffff"></rect></mask></defs></svg>