<?xml version="1.0" encoding="utf-8"?>
<!-- Generator: Adobe Illustrator 25.1.0, SVG Export Plug-In . SVG Version: 6.00 Build 0)  -->
<svg version="1.1" id="a87032b8-5b37-4b7e-a4d9-4dbfbe394641"
	 xmlns="http://www.w3.org/2000/svg" xmlns:xlink="http://www.w3.org/1999/xlink" x="0px" y="0px" viewBox="0 0 744.8 747.1"
	 style="enable-background:new 0 0 744.8 747.1;" xml:space="preserve">
<style type="text/css">
	.st0{fill:#45A349;}
	.st1{fill:#2F2E41;}
	.st2{fill:#FFFFFF;}
	.st3{fill:#CCCCCC;}
	.st4{fill:#3943B7;}
	.st5{fill:#FFB8B8;}
</style>
<path id="fa3b9e12-7275-481e-bee9-64fd9595a50d" class="st0" d="M671.7,607.1c-16.4,7.7-32.8,17.4-45.9,29.5
	c-42.1,39.1-63.5,84.5-47.7,101.5s62.7-1,104.8-40.1c4.2-3.9,8.1-8,11.7-12.4l-26.2-3.8l33.7-5.9c29-40.1,42.8-92.6,42.8-92.6
	s-10.2,1.9-25.2,6.2l-3.4,13.2l-0.8-12c-12.1,3.6-24,7.9-35.6,12.8l-6.6,25.9L671.7,607.1z"/>
<path id="bde08021-c30f-4979-a9d8-cb90b72b5ca2" class="st0" d="M598,583c-10.1,15-19.1,31.8-24,49
	c-15.8,55.2-10.7,105.2,11.6,111.6s53.1-33.2,69-88.5c1.6-5.5,2.8-11.1,3.6-16.7l-24.4,10.3l25.8-22.5c4-49.3-11.3-101.4-11.3-101.4
	s-7.8,6.9-18.4,18.3l4,13.1l-6.9-9.9c-8.5,9.3-16.5,19.1-23.9,29.4l7.8,25.5L598,583z"/>
<path id="b3ac2088-de9b-4f7f-bc99-0ed9705c1a9d" class="st1" d="M223.1,256.8h4.1v423.1c0,35.8,29,64.9,64.9,64.9h237.5
	c35.8,0,64.9-29,64.9-64.9v-615c0-35.8-29-64.9-64.9-64.9L292.1,0c-35.8,0-64.9,29-64.9,64.9V177h-4.1V256.8z"/>
<path id="b2715b96-3117-487c-acc0-20904544b5b7" class="st2" d="M243,65.3v614.1l0,0c0,26.8,21.7,48.5,48.5,48.5h238.7
	c26.8,0,48.5-21.7,48.5-48.5V65.3l0,0c0-26.8-21.7-48.5-48.5-48.5h-29c1.1,2.8,1.7,5.7,1.7,8.7c0,12.7-10.3,23-23,23H343.8
	c-3,0-5.9-0.6-8.7-1.7c-11.8-4.8-17.4-18.2-12.6-30h-31C264.7,16.9,243,38.6,243,65.3z"/>
<path id="b06d66ec-6c84-45dd-8c27-1263a6253192" class="st3" d="M429,282.7c7.6,4.4,16.9,4.4,24.5,0c11.7-6.8,15.7-21.7,8.9-33.4
	c-6.8-11.7-21.7-15.7-33.4-8.9c7.6,4.4,12.2,12.4,12.2,21.2C441.2,270.2,436.5,278.3,429,282.7z"/>
<path id="e73810fe-4cf4-40cc-8c7c-ca544ce30bd4" class="st3" d="M398.2,282.7c7.6,4.4,16.9,4.4,24.5,0c11.7-6.8,15.7-21.7,8.9-33.4
	c-6.8-11.7-21.7-15.7-33.4-8.9c7.6,4.4,12.2,12.4,12.2,21.2C410.5,270.2,405.8,278.3,398.2,282.7z"/>
<circle id="a4813fcf-056e-4514-bb8b-e6506f49341f" class="st0" cx="380.4" cy="261.5" r="24.5"/>
<path id="bbe451c3-febc-41ba-8083-4c8307a2e73e" class="st3" d="M334.4,332.8V190.3c0-2.8,2.3-5.1,5.1-5.1H482
	c2.8,0,5.1,2.3,5.1,5.1v142.5c0,2.8-2.3,5.1-5.1,5.1H339.6C336.7,337.9,334.4,335.6,334.4,332.8z M339.6,187.2
	c-1.7,0-3.1,1.4-3.1,3.1v142.5c0,1.7,1.4,3.1,3.1,3.1h142.5c1.7,0,3.1-1.4,3.1-3.1V190.3c0-1.7-1.4-3.1-3.1-3.1H339.6z"/>
<rect id="bb28937d-932f-4fdf-befe-f406e51091fe" x="307.7" y="447.1" class="st3" width="218.6" height="2"/>
<circle id="fcef55fc-4968-45b2-93bb-1a1080c85fc7" class="st4" cx="519.4" cy="427.4" r="6.9"/>
<rect id="ff33d889-4c74-4b91-85ef-b4882cc8fe76" x="307.7" y="516.1" class="st3" width="218.6" height="2"/>
<circle id="e8fa0310-b872-4adf-aedd-0c6eda09f3b8" class="st4" cx="519.4" cy="496.4" r="6.9"/>
<path class="st4" d="M307.2,590.2V566c0-2.5,2-4.5,4.5-4.5h69.1c2.5,0,4.5,2,4.5,4.5v24.2c0,2.5-2,4.5-4.5,4.5h-69.1
	C309.2,594.7,307.2,592.7,307.2,590.2z"/>
<circle id="e12ee00d-aa4a-4413-a013-11d20b7f97f7" class="st4" cx="496.9" cy="427.4" r="6.9"/>
<circle id="f58f497e-6949-45c8-be5f-eee2aa0f6586" class="st4" cx="474.4" cy="427.4" r="6.9"/>
<circle id="b4d4939a-c6e6-4f4d-ba6c-e8b05485017d" class="st4" cx="496.9" cy="496.4" r="6.9"/>
<circle id="aff120b1-519b-4e96-ac87-836aa55663de" class="st4" cx="474.4" cy="496.4" r="6.9"/>
<path class="st5" d="M193.6,494.5c2.4,5.1,0.2,11.2-4.9,13.6c-5.1,2.4-11.2,0.2-13.6-4.9c-0.2-0.4-0.3-0.8-0.4-1.2l-59.2-15.7
	l-1.1-27.1l17.9,0.1l1.6,11.8l44.9,19.1c0.4-0.3,0.9-0.6,1.4-0.8C185.3,487.2,191.3,489.4,193.6,494.5z"/>
<polygon class="st5" points="107.9,687.7 126,687.7 120.1,735 107.9,735 "/>
<path class="st1" d="M143.8,746.4L143.8,746.4L143.8,746.4h-38.5l0,0v-14.9l0,0h23.6C137.1,731.5,143.8,738.2,143.8,746.4z"/>
<polygon class="st5" points="64.8,684.5 82.8,686.3 72.4,732.8 60.2,731.6 "/>
<path class="st1" d="M94.8,746.4L94.8,746.4L94.8,746.4l-38.3-3.8l0,0l1.5-14.8l0,0l23.5,2.3C89.6,730.9,95.6,738.2,94.8,746.4z"/>
<circle class="st5" cx="104.5" cy="384.6" r="24.6"/>
<path class="st1" d="M122.4,725.4l-13.8-1.3c-2.3-0.2-4.1-2.2-4.1-4.5v-1.7c0.2-15.5,0.8-60.4,1.1-78c0-0.2-0.1-0.4-0.4-0.5
	s-0.5,0.1-0.6,0.3c-5.2,18.5-20,66.2-24.5,80.4c-0.7,2.1-2.8,3.4-5,3.1l-14.4-2.4c-2.4-0.4-4.1-2.7-3.7-5.1l23-147v-0.2
	c-0.2-1.9-1.1-11.3,1.4-14.4l0,0c2.5-3.1,53.6-0.9,69.3-0.2c0.5,0,0.9,0.3,1.1,0.6l2.7,3.8c0.2,0.3,0.3,0.6,0.3,0.9v8.6
	c0,0.1,0,0.1,0,0.2c-0.5,3.2-21.2,118.4-27.6,153.6c-0.4,2.1-2.2,3.7-4.4,3.7C122.7,725.5,122.6,725.5,122.4,725.4z"/>
<path id="ae7af94f-88d7-4204-9f07-e3651de85c05" class="st4" d="M116.6,418c-14.8-3.7-30.4-0.4-42.4,9c-1.8,1.4-3.4,2.9-4.9,4.7
	l6.4,68l4.5,62.3c0,0,2.6-15.4,25-3.9s32.1,14.8,48.8,0.6l-19.3-73.2l-1.6-27.6c-0.5-9.2-2.2-18.3-4.9-27.2c-1.5-4.8-4-9.4-8.3-12
	L116.6,418z"/>
<path class="st5" d="M126.3,504.2c0.4-0.1,0.8-0.3,1.2-0.4c5.6-1.3,11.3,2.2,12.6,7.8c1.3,5.6-2.2,11.3-7.8,12.6
	c-5.6,1.3-11.3-2.2-12.6-7.8l-59.3-19.6l1-27.4l18.3,1.3l0.7,12l44.3,22.2C125.3,504.7,125.8,504.4,126.3,504.2L126.3,504.2z"/>
<path id="a6768b0e-63d0-4b31-8462-9b2e0b00f0fd" class="st1" d="M87,433.9c5.6,6.3,7.5,15,5.1,23.1c-3.9,14.1-7.1,25-7.1,25
	s-15.4-11.6-28.2-4.5c0,0,1.9-41.7,12.8-45.6C80.6,428.1,87,433.9,87,433.9z"/>
<path id="bfd7963f-0cf8-4885-9d3a-2c00bccda2e3" class="st1" d="M84.8,363.1c0,0,7.3-15.9,21.4-12.2s22,9.2,22.6,14.7
	c0.3,4.6,0.2,9.2-0.3,13.8c0,0-1.5-11.3-11.3-8.9S92.1,371,92.1,371l-2.4,22c0,0-4.2-4.5-7.2-2C79.4,393.5,75,368,84.8,363.1z"/>
<path id="f1094013-1297-477a-ac57-08eac07c4bd5" class="st2" d="M0,745.9c0-0.7,1.2-1.2,2.8-1.2h718c1.5,0,2.8,0.5,2.8,1.2
	s-1.2,1.2-2.8,1.2H2.8C1.2,747.1,0,746.5,0,745.9z"/>
</svg>
