<?xml version="1.0" encoding="utf-8"?>
<!-- Generator: Adobe Illustrator 25.1.0, SVG Export Plug-In . SVG Version: 6.00 Build 0)  -->
<svg version="1.1" id="a87032b8-5b37-4b7e-a4d9-4dbfbe394641"
	 xmlns="http://www.w3.org/2000/svg" xmlns:xlink="http://www.w3.org/1999/xlink" x="0px" y="0px" viewBox="0 0 744.8 747.1"
	 style="enable-background:new 0 0 744.8 747.1;" xml:space="preserve">
<style type="text/css">
	.st0{fill:#45A349;}
	.st1{fill:#2F2E41;}
	.st2{fill:#FFFFFF;}
	.st3{fill:#CCCCCC;}
	.st4{fill:#3943B7;}
	.st5{fill:#FFB8B8;}
</style>
<path id="fa3b9e12-7275-481e-bee9-64fd9595a50d" class="st0" d="M671.7,607.1c-16.4,7.7-32.8,17.4-45.9,29.5
	c-42.1,39.1-63.5,84.5-47.7,101.5s62.7-1,104.8-40.1c4.2-3.9,8.1-8,11.7-12.4l-26.2-3.8l33.7-5.9c29-40.1,42.8-92.6,42.8-92.6
	s-10.2,1.9-25.2,6.2l-3.4,13.2l-0.8-12c-12.1,3.6-24,7.9-35.6,12.8l-6.6,25.9L671.7,607.1z"/>
<path id="bde08021-c30f-4979-a9d8-cb90b72b5ca2" class="st0" d="M598,583c-10.1,15-19.1,31.8-24,49
	c-15.8,55.2-10.7,105.2,11.6,111.6s53.1-33.2,69-88.5c1.6-5.5,2.8-11.1,3.6-16.7l-24.4,10.3l25.8-22.5c4-49.3-11.3-101.4-11.3-101.4
	s-7.8,6.9-18.4,18.3l4,13.1l-6.9-9.9c-8.5,9.3-16.5,19.1-23.9,29.4l7.8,25.5L598,583z"/>
<path id="b3ac2088-de9b-4f7f-bc99-0ed9705c1a9d" class="st1" d="M226.1,256.8h4.1v423.1c0,35.8,29,64.9,64.9,64.9h237.5
	c35.8,0,64.9-29,64.9-64.9v-615c0-35.8-29-64.9-64.9-64.9L295.1,0c-35.8,0-64.9,29-64.9,64.9V177h-4.1V256.8z"/>
<path id="b2715b96-3117-487c-acc0-20904544b5b7" class="st2" d="M247,66.5v614.1l0,0c0,26.8,21.7,48.5,48.5,48.5h238.7
	c26.8,0,48.5-21.7,48.5-48.5V66.5l0,0c0-26.8-21.7-48.5-48.5-48.5h-29c1.1,2.8,1.7,5.7,1.7,8.7c0,12.7-10.3,23-23,23H347.8
	c-3,0-5.9-0.6-8.7-1.7c-11.8-4.8-17.4-18.2-12.6-30h-31C268.8,18.1,247,39.8,247,66.5z"/>
<path id="b06d66ec-6c84-45dd-8c27-1263a6253192" class="st3" d="M429,223.7c7.6,4.4,16.9,4.4,24.5,0c11.7-6.8,15.7-21.7,8.9-33.4
	c-6.8-11.7-21.7-15.7-33.4-8.9c7.6,4.4,12.2,12.4,12.2,21.2C441.2,211.2,436.5,219.3,429,223.7z"/>
<path id="e73810fe-4cf4-40cc-8c7c-ca544ce30bd4" class="st3" d="M398.2,223.7c7.6,4.4,16.9,4.4,24.5,0c11.7-6.8,15.7-21.7,8.9-33.4
	c-6.8-11.7-21.7-15.7-33.4-8.9c7.6,4.4,12.2,12.4,12.2,21.2C410.5,211.2,405.8,219.3,398.2,223.7z"/>
<circle id="a4813fcf-056e-4514-bb8b-e6506f49341f" class="st0" cx="380.4" cy="202.5" r="24.5"/>
<path id="bbe451c3-febc-41ba-8083-4c8307a2e73e" class="st3" d="M334.4,273.8V131.3c0-2.8,2.3-5.1,5.1-5.1H482
	c2.8,0,5.1,2.3,5.1,5.1v142.5c0,2.8-2.3,5.1-5.1,5.1H339.6C336.7,278.9,334.4,276.6,334.4,273.8z M339.6,128.2
	c-1.7,0-3.1,1.4-3.1,3.1v142.5c0,1.7,1.4,3.1,3.1,3.1h142.5c1.7,0,3.1-1.4,3.1-3.1V131.3c0-1.7-1.4-3.1-3.1-3.1H339.6z"/>
<rect id="bb28937d-932f-4fdf-befe-f406e51091fe" x="307.7" y="447.1" class="st3" width="218.6" height="2"/>
<circle id="fcef55fc-4968-45b2-93bb-1a1080c85fc7" class="st4" cx="519.4" cy="427.4" r="6.9"/>
<circle id="fcef55fc-4968-45b2-93bb-1a1080c85fc7_2_" class="st4" cx="519.2" cy="501.7" r="6.9"/>
<circle id="fcef55fc-4968-45b2-93bb-1a1080c85fc7_3_" class="st4" cx="404.9" cy="501.7" r="6.9"/>
<rect id="ff33d889-4c74-4b91-85ef-b4882cc8fe76" x="307.7" y="516.1" class="st3" width="103.1" height="2"/>
<path class="st4" d="M307.2,590.2V566c0-2.5,2-4.5,4.5-4.5h69.1c2.5,0,4.5,2,4.5,4.5v24.2c0,2.5-2,4.5-4.5,4.5h-69.1
	C309.2,594.7,307.2,592.7,307.2,590.2z"/>
<circle id="e12ee00d-aa4a-4413-a013-11d20b7f97f7" class="st4" cx="496.9" cy="427.4" r="6.9"/>
<rect id="ff33d889-4c74-4b91-85ef-b4882cc8fe76_1_" x="425.2" y="516.1" class="st3" width="101.1" height="2"/>
<circle id="fcef55fc-4968-45b2-93bb-1a1080c85fc7_5_" class="st4" cx="519.2" cy="356.1" r="6.9"/>
<circle id="fcef55fc-4968-45b2-93bb-1a1080c85fc7_4_" class="st4" cx="404.9" cy="356.1" r="6.9"/>
<rect id="ff33d889-4c74-4b91-85ef-b4882cc8fe76_3_" x="307.7" y="370.5" class="st3" width="103.1" height="2"/>
<rect id="ff33d889-4c74-4b91-85ef-b4882cc8fe76_2_" x="425.2" y="370.5" class="st3" width="101.1" height="2"/>
<path class="st5" d="M195.3,558.3c0.9-4.8-2.2-9.5-7-10.4c-0.5-0.1-1.1-0.2-1.6-0.2l-7.5-18.8l-12.5,1.8l11,26.4
	c0.2,4.9,4.4,8.7,9.3,8.4C191.2,565.4,194.6,562.4,195.3,558.3L195.3,558.3z"/>
<path class="st1" d="M172.2,552.8l-3.9-9.2L144,497.4l1.3-85.4h0.2c15.5-2,26,69.4,26.4,72.4l15.3,52.4l3.7,11.5L172.2,552.8z"/>
<polygon class="st5" points="134.9,732.8 146.7,732.8 152.4,687.3 134.9,687.3 "/>
<path class="st1" d="M131.9,729h23.2l0,0c8.2,0,14.8,6.6,14.8,14.8v0.5h-38V729z"/>
<polygon class="st5" points="26.6,714.8 36.2,721.5 66.8,687.5 52.6,677.5 "/>
<path class="st1" d="M26.3,710l19,13.3l0,0c6.7,4.7,8.3,13.9,3.7,20.6l-0.2,0.4l-31.2-21.7L26.3,710z"/>
<path class="st1" d="M128.5,722.1l-0.5-85.3l-7.4-53.6l-13.8,47.1l0,0l-50.1,72.8l-19.5-9.9l0.1-0.2c1.2-2.9,29.3-69.4,36.8-69.4
	c1.3,0.1,2.6-0.5,3.4-1.6c2.2-2.9,0.4-9.2,0.4-9.3c-2.1-8.9,3.3-12,4.3-12.5l2.9-60.1h0.3l78.9,5.6l-3.3,75.1l-7.1,98.4h-0.2
	L128.5,722.1z"/>
<path class="st4" d="M165.5,559.1h-0.3l-84.9-6.9l0.2-28.1l4.2-73.3v-0.1l16.9-36.7l11.9-5.4l17.5-0.9h0.1l16,3.9l16.6,119.2
	L165.5,559.1z"/>
<ellipse class="st5" cx="123.1" cy="378.8" rx="22.3" ry="22.3"/>
<path class="st1" d="M100.6,384.4v-8.8c0,0-7-8.3,0.7-10.3c0,0,2.1-20.8,20.4-11.1c0,0,25.3-4.2,22.4,10.4c0,0,6.3-3.8,4.2,5.9
	l-4.1,15.6c0,0,2-10.3-4.3-11.7l-3.5-2c0,0-9.8,9.7-24.6-2c0,0-6.3-1.5-5.6,4.7C106.9,381.2,100.6,384.4,100.6,384.4z"/>
<path class="st5" d="M120.9,538.1c0.1-4.9-3.8-8.9-8.8-9c-0.5,0-1.1,0-1.6,0.1L99.8,512l-12,4l15.5,24.1c1.1,4.8,6,7.8,10.7,6.6
	C118,545.8,120.8,542.2,120.9,538.1L120.9,538.1z"/>
<path class="st1" d="M93,532.6l-19.5-39.4v-0.1c0.1-0.4,7.9-43.9,13.9-59.9c6.1-16,14.2-19.3,14.6-19.4l0.2-0.1l7.4,7.1l-10.1,68.3
	l11,33L93,532.6z"/>
<path id="f1094013-1297-477a-ac57-08eac07c4bd5" class="st2" d="M0,745.9c0-0.7,1.2-1.2,2.8-1.2h718c1.5,0,2.8,0.5,2.8,1.2
	s-1.2,1.2-2.8,1.2H2.8C1.2,747.1,0,746.5,0,745.9z"/>
</svg>
