<svg xmlns="http://www.w3.org/2000/svg" version="1.1" xmlns:xlink="http://www.w3.org/1999/xlink" xmlns:svgjs="http://svgjs.com/svgjs" width="1440" height="768" preserveAspectRatio="none" viewBox="0 0 1440 768"><g mask="url(&quot;#SvgjsMask1014&quot;)" fill="none"><path d="M0 0L355.12 0L0 91.55z" fill="rgba(255, 255, 255, .1)"></path><path d="M0 91.55L355.12 0L925.46 0L0 392.99z" fill="rgba(255, 255, 255, .075)"></path><path d="M0 392.99L925.46 0L980.51 0L0 619.16z" fill="rgba(255, 255, 255, .05)"></path><path d="M0 619.16L980.51 0L1050.62 0L0 674.22z" fill="rgba(255, 255, 255, .025)"></path><path d="M1440 768L1131.35 768L1440 619.91z" fill="rgba(0, 0, 0, .1)"></path><path d="M1440 619.91L1131.35 768L683.6099999999999 768L1440 289.34999999999997z" fill="rgba(0, 0, 0, .075)"></path><path d="M1440 289.35L683.61 768L514.12 768L1440 232.45000000000002z" fill="rgba(0, 0, 0, .05)"></path><path d="M1440 232.45000000000005L514.12 768L379.26 768L1440 124.18000000000005z" fill="rgba(0, 0, 0, .025)"></path></g><defs><mask id="SvgjsMask1014"><rect width="1440" height="768" fill="#ffffff"></rect></mask></defs></svg>